<mxfile host="app.diagrams.net" agent="Mozilla/5.0 (X11; Linux x86_64; rv:133.0) Gecko/20100101 Firefox/133.0" version="25.0.3">
  <diagram name="Page-1" id="RVm5rcldztvwOWCSPebW">
    <mxGraphModel dx="3532" dy="2053" grid="1" gridSize="10" guides="1" tooltips="1" connect="1" arrows="1" fold="1" page="1" pageScale="1" pageWidth="1169" pageHeight="827" math="0" shadow="0">
      <root>
        <mxCell id="0" />
        <mxCell id="1" parent="0" />
        <mxCell id="CVvKVx2m2oai3thRhIA--72" value="" style="rounded=0;whiteSpace=wrap;html=1;fillStyle=solid;fillColor=#C2C2C2;" vertex="1" parent="1">
          <mxGeometry x="-650" y="-450" width="2460" height="1490" as="geometry" />
        </mxCell>
        <mxCell id="XMvrOeV04oSUWpngeJ3K-4" value="" style="shape=mxgraph.cisco.routers.10700;sketch=0;html=1;pointerEvents=1;dashed=0;fillColor=#036897;strokeColor=#ffffff;strokeWidth=2;verticalLabelPosition=bottom;verticalAlign=top;align=center;outlineConnect=0;" parent="1" vertex="1">
          <mxGeometry x="408" y="210" width="78" height="53" as="geometry" />
        </mxCell>
        <mxCell id="XMvrOeV04oSUWpngeJ3K-5" value="" style="shape=mxgraph.cisco.routers.10700;sketch=0;html=1;pointerEvents=1;dashed=0;fillColor=#036897;strokeColor=#ffffff;strokeWidth=2;verticalLabelPosition=bottom;verticalAlign=top;align=center;outlineConnect=0;" parent="1" vertex="1">
          <mxGeometry x="722" y="210" width="78" height="53" as="geometry" />
        </mxCell>
        <mxCell id="XMvrOeV04oSUWpngeJ3K-6" value="" style="shape=mxgraph.cisco.routers.10700;sketch=0;html=1;pointerEvents=1;dashed=0;fillColor=#036897;strokeColor=#ffffff;strokeWidth=2;verticalLabelPosition=bottom;verticalAlign=top;align=center;outlineConnect=0;" parent="1" vertex="1">
          <mxGeometry x="722" y="440" width="78" height="53" as="geometry" />
        </mxCell>
        <mxCell id="XMvrOeV04oSUWpngeJ3K-7" value="" style="shape=mxgraph.cisco.routers.10700;sketch=0;html=1;pointerEvents=1;dashed=0;fillColor=#036897;strokeColor=#ffffff;strokeWidth=2;verticalLabelPosition=bottom;verticalAlign=top;align=center;outlineConnect=0;" parent="1" vertex="1">
          <mxGeometry x="408" y="440" width="78" height="53" as="geometry" />
        </mxCell>
        <mxCell id="XMvrOeV04oSUWpngeJ3K-8" value="" style="shape=mxgraph.cisco.switches.atm_switch;sketch=0;html=1;pointerEvents=1;dashed=0;fillColor=#036897;strokeColor=#ffffff;strokeWidth=2;verticalLabelPosition=bottom;verticalAlign=top;align=center;outlineConnect=0;" parent="1" vertex="1">
          <mxGeometry x="214" y="480" width="54" height="56" as="geometry" />
        </mxCell>
        <mxCell id="XMvrOeV04oSUWpngeJ3K-9" value="" style="shape=mxgraph.cisco.switches.atm_switch;sketch=0;html=1;pointerEvents=1;dashed=0;fillColor=#036897;strokeColor=#ffffff;strokeWidth=2;verticalLabelPosition=bottom;verticalAlign=top;align=center;outlineConnect=0;" parent="1" vertex="1">
          <mxGeometry x="214" y="170" width="54" height="56" as="geometry" />
        </mxCell>
        <mxCell id="XMvrOeV04oSUWpngeJ3K-10" value="" style="shape=mxgraph.cisco.switches.atm_switch;sketch=0;html=1;pointerEvents=1;dashed=0;fillColor=#036897;strokeColor=#ffffff;strokeWidth=2;verticalLabelPosition=bottom;verticalAlign=top;align=center;outlineConnect=0;" parent="1" vertex="1">
          <mxGeometry x="930" y="154" width="54" height="56" as="geometry" />
        </mxCell>
        <mxCell id="XMvrOeV04oSUWpngeJ3K-11" value="" style="shape=mxgraph.cisco.switches.atm_switch;sketch=0;html=1;pointerEvents=1;dashed=0;fillColor=#036897;strokeColor=#ffffff;strokeWidth=2;verticalLabelPosition=bottom;verticalAlign=top;align=center;outlineConnect=0;" parent="1" vertex="1">
          <mxGeometry x="920" y="493" width="54" height="56" as="geometry" />
        </mxCell>
        <mxCell id="XMvrOeV04oSUWpngeJ3K-12" value="" style="shape=mxgraph.cisco.switches.workgroup_switch;sketch=0;html=1;pointerEvents=1;dashed=0;fillColor=#036897;strokeColor=#ffffff;strokeWidth=2;verticalLabelPosition=bottom;verticalAlign=top;align=center;outlineConnect=0;" parent="1" vertex="1">
          <mxGeometry x="50" y="-30" width="101" height="50" as="geometry" />
        </mxCell>
        <mxCell id="XMvrOeV04oSUWpngeJ3K-13" value="" style="shape=mxgraph.cisco.switches.workgroup_switch;sketch=0;html=1;pointerEvents=1;dashed=0;fillColor=#036897;strokeColor=#ffffff;strokeWidth=2;verticalLabelPosition=bottom;verticalAlign=top;align=center;outlineConnect=0;" parent="1" vertex="1">
          <mxGeometry x="50" y="110" width="101" height="50" as="geometry" />
        </mxCell>
        <mxCell id="XMvrOeV04oSUWpngeJ3K-14" value="" style="shape=mxgraph.cisco.switches.workgroup_switch;sketch=0;html=1;pointerEvents=1;dashed=0;fillColor=#036897;strokeColor=#ffffff;strokeWidth=2;verticalLabelPosition=bottom;verticalAlign=top;align=center;outlineConnect=0;" parent="1" vertex="1">
          <mxGeometry x="50" y="250" width="101" height="50" as="geometry" />
        </mxCell>
        <mxCell id="XMvrOeV04oSUWpngeJ3K-18" value="" style="shape=mxgraph.cisco.switches.workgroup_switch;sketch=0;html=1;pointerEvents=1;dashed=0;fillColor=#036897;strokeColor=#ffffff;strokeWidth=2;verticalLabelPosition=bottom;verticalAlign=top;align=center;outlineConnect=0;" parent="1" vertex="1">
          <mxGeometry x="1080" y="451" width="101" height="50" as="geometry" />
        </mxCell>
        <mxCell id="XMvrOeV04oSUWpngeJ3K-19" value="" style="shape=mxgraph.cisco.switches.workgroup_switch;sketch=0;html=1;pointerEvents=1;dashed=0;fillColor=#036897;strokeColor=#ffffff;strokeWidth=2;verticalLabelPosition=bottom;verticalAlign=top;align=center;outlineConnect=0;" parent="1" vertex="1">
          <mxGeometry x="1074" y="623" width="101" height="50" as="geometry" />
        </mxCell>
        <mxCell id="XMvrOeV04oSUWpngeJ3K-20" value="" style="shape=mxgraph.cisco.switches.workgroup_switch;sketch=0;html=1;pointerEvents=1;dashed=0;fillColor=#036897;strokeColor=#ffffff;strokeWidth=2;verticalLabelPosition=bottom;verticalAlign=top;align=center;outlineConnect=0;" parent="1" vertex="1">
          <mxGeometry x="1080" y="783" width="101" height="50" as="geometry" />
        </mxCell>
        <mxCell id="XMvrOeV04oSUWpngeJ3K-21" value="" style="shape=mxgraph.cisco.switches.workgroup_switch;sketch=0;html=1;pointerEvents=1;dashed=0;fillColor=#036897;strokeColor=#ffffff;strokeWidth=2;verticalLabelPosition=bottom;verticalAlign=top;align=center;outlineConnect=0;" parent="1" vertex="1">
          <mxGeometry x="1080" y="-50" width="101" height="50" as="geometry" />
        </mxCell>
        <mxCell id="XMvrOeV04oSUWpngeJ3K-22" value="" style="shape=mxgraph.cisco.switches.workgroup_switch;sketch=0;html=1;pointerEvents=1;dashed=0;fillColor=#036897;strokeColor=#ffffff;strokeWidth=2;verticalLabelPosition=bottom;verticalAlign=top;align=center;outlineConnect=0;" parent="1" vertex="1">
          <mxGeometry x="1080" y="110" width="101" height="50" as="geometry" />
        </mxCell>
        <mxCell id="XMvrOeV04oSUWpngeJ3K-23" value="" style="shape=mxgraph.cisco.switches.workgroup_switch;sketch=0;html=1;pointerEvents=1;dashed=0;fillColor=#036897;strokeColor=#ffffff;strokeWidth=2;verticalLabelPosition=bottom;verticalAlign=top;align=center;outlineConnect=0;" parent="1" vertex="1">
          <mxGeometry x="1080" y="238" width="101" height="50" as="geometry" />
        </mxCell>
        <mxCell id="XMvrOeV04oSUWpngeJ3K-24" value="" style="html=1;outlineConnect=0;fillColor=#CCCCCC;strokeColor=#6881B3;gradientColor=none;gradientDirection=north;strokeWidth=2;shape=mxgraph.networks.comm_link_edge;html=1;rounded=0;entryX=0;entryY=0.5;entryDx=0;entryDy=0;entryPerimeter=0;exitX=1;exitY=0.5;exitDx=0;exitDy=0;exitPerimeter=0;" parent="1" source="XMvrOeV04oSUWpngeJ3K-4" target="XMvrOeV04oSUWpngeJ3K-5" edge="1">
          <mxGeometry width="100" height="100" relative="1" as="geometry">
            <mxPoint x="520" y="320" as="sourcePoint" />
            <mxPoint x="620" y="220" as="targetPoint" />
          </mxGeometry>
        </mxCell>
        <mxCell id="XMvrOeV04oSUWpngeJ3K-25" value="" style="html=1;outlineConnect=0;fillColor=#CCCCCC;strokeColor=#6881B3;gradientColor=none;gradientDirection=north;strokeWidth=2;shape=mxgraph.networks.comm_link_edge;html=1;rounded=0;entryX=0;entryY=0.5;entryDx=0;entryDy=0;entryPerimeter=0;exitX=1;exitY=0.5;exitDx=0;exitDy=0;exitPerimeter=0;" parent="1" source="XMvrOeV04oSUWpngeJ3K-7" target="XMvrOeV04oSUWpngeJ3K-6" edge="1">
          <mxGeometry width="100" height="100" relative="1" as="geometry">
            <mxPoint x="486" y="547" as="sourcePoint" />
            <mxPoint x="722" y="547" as="targetPoint" />
          </mxGeometry>
        </mxCell>
        <mxCell id="XMvrOeV04oSUWpngeJ3K-26" value="" style="html=1;outlineConnect=0;fillColor=#CCCCCC;strokeColor=#6881B3;gradientColor=none;gradientDirection=north;strokeWidth=2;shape=mxgraph.networks.comm_link_edge;html=1;rounded=0;exitX=0.5;exitY=0;exitDx=0;exitDy=0;exitPerimeter=0;entryX=0.5;entryY=1;entryDx=0;entryDy=0;entryPerimeter=0;" parent="1" source="XMvrOeV04oSUWpngeJ3K-7" target="XMvrOeV04oSUWpngeJ3K-4" edge="1">
          <mxGeometry width="100" height="100" relative="1" as="geometry">
            <mxPoint x="520" y="320" as="sourcePoint" />
            <mxPoint x="620" y="220" as="targetPoint" />
          </mxGeometry>
        </mxCell>
        <mxCell id="XMvrOeV04oSUWpngeJ3K-27" value="" style="html=1;outlineConnect=0;fillColor=#CCCCCC;strokeColor=#6881B3;gradientColor=none;gradientDirection=north;strokeWidth=2;shape=mxgraph.networks.comm_link_edge;html=1;rounded=0;exitX=0.5;exitY=0;exitDx=0;exitDy=0;exitPerimeter=0;entryX=0.5;entryY=1;entryDx=0;entryDy=0;entryPerimeter=0;" parent="1" source="XMvrOeV04oSUWpngeJ3K-6" target="XMvrOeV04oSUWpngeJ3K-5" edge="1">
          <mxGeometry width="100" height="100" relative="1" as="geometry">
            <mxPoint x="520" y="320" as="sourcePoint" />
            <mxPoint x="620" y="220" as="targetPoint" />
          </mxGeometry>
        </mxCell>
        <mxCell id="XMvrOeV04oSUWpngeJ3K-28" value="" style="endArrow=none;dashed=1;html=1;rounded=0;exitX=0.88;exitY=0.1;exitDx=0;exitDy=0;exitPerimeter=0;entryX=0.12;entryY=0.9;entryDx=0;entryDy=0;entryPerimeter=0;" parent="1" source="XMvrOeV04oSUWpngeJ3K-7" target="XMvrOeV04oSUWpngeJ3K-5" edge="1">
          <mxGeometry width="50" height="50" relative="1" as="geometry">
            <mxPoint x="540" as="sourcePoint" />
            <mxPoint x="590" y="-50" as="targetPoint" />
          </mxGeometry>
        </mxCell>
        <mxCell id="XMvrOeV04oSUWpngeJ3K-29" value="" style="endArrow=none;dashed=1;html=1;rounded=0;exitX=0.88;exitY=0.9;exitDx=0;exitDy=0;exitPerimeter=0;entryX=0.12;entryY=0.1;entryDx=0;entryDy=0;entryPerimeter=0;" parent="1" source="XMvrOeV04oSUWpngeJ3K-4" target="XMvrOeV04oSUWpngeJ3K-6" edge="1">
          <mxGeometry width="50" height="50" relative="1" as="geometry">
            <mxPoint x="540" y="300" as="sourcePoint" />
            <mxPoint x="590" y="250" as="targetPoint" />
          </mxGeometry>
        </mxCell>
        <mxCell id="XMvrOeV04oSUWpngeJ3K-30" value="" style="endArrow=none;html=1;rounded=0;entryX=1;entryY=0.5;entryDx=0;entryDy=0;entryPerimeter=0;exitX=0;exitY=0.5;exitDx=0;exitDy=0;exitPerimeter=0;" parent="1" source="XMvrOeV04oSUWpngeJ3K-4" target="XMvrOeV04oSUWpngeJ3K-9" edge="1">
          <mxGeometry width="50" height="50" relative="1" as="geometry">
            <mxPoint x="540" y="480" as="sourcePoint" />
            <mxPoint x="590" y="430" as="targetPoint" />
          </mxGeometry>
        </mxCell>
        <mxCell id="XMvrOeV04oSUWpngeJ3K-31" value="" style="endArrow=none;html=1;rounded=0;exitX=1;exitY=0.5;exitDx=0;exitDy=0;exitPerimeter=0;entryX=0;entryY=0.5;entryDx=0;entryDy=0;entryPerimeter=0;" parent="1" source="XMvrOeV04oSUWpngeJ3K-8" target="XMvrOeV04oSUWpngeJ3K-7" edge="1">
          <mxGeometry width="50" height="50" relative="1" as="geometry">
            <mxPoint x="540" y="480" as="sourcePoint" />
            <mxPoint x="590" y="430" as="targetPoint" />
          </mxGeometry>
        </mxCell>
        <mxCell id="XMvrOeV04oSUWpngeJ3K-32" value="" style="endArrow=none;html=1;rounded=0;exitX=1;exitY=0.5;exitDx=0;exitDy=0;exitPerimeter=0;entryX=0.12;entryY=0.1;entryDx=0;entryDy=0;entryPerimeter=0;" parent="1" source="XMvrOeV04oSUWpngeJ3K-9" target="XMvrOeV04oSUWpngeJ3K-7" edge="1">
          <mxGeometry width="50" height="50" relative="1" as="geometry">
            <mxPoint x="540" y="480" as="sourcePoint" />
            <mxPoint x="590" y="430" as="targetPoint" />
          </mxGeometry>
        </mxCell>
        <mxCell id="XMvrOeV04oSUWpngeJ3K-33" value="" style="endArrow=none;html=1;rounded=0;exitX=1;exitY=0.5;exitDx=0;exitDy=0;exitPerimeter=0;entryX=0.12;entryY=0.9;entryDx=0;entryDy=0;entryPerimeter=0;" parent="1" source="XMvrOeV04oSUWpngeJ3K-8" target="XMvrOeV04oSUWpngeJ3K-4" edge="1">
          <mxGeometry width="50" height="50" relative="1" as="geometry">
            <mxPoint x="540" y="480" as="sourcePoint" />
            <mxPoint x="590" y="430" as="targetPoint" />
          </mxGeometry>
        </mxCell>
        <mxCell id="XMvrOeV04oSUWpngeJ3K-34" value="" style="endArrow=none;html=1;rounded=0;entryX=0;entryY=0.5;entryDx=0;entryDy=0;entryPerimeter=0;exitX=1;exitY=0.5;exitDx=0;exitDy=0;exitPerimeter=0;" parent="1" source="XMvrOeV04oSUWpngeJ3K-5" target="XMvrOeV04oSUWpngeJ3K-10" edge="1">
          <mxGeometry width="50" height="50" relative="1" as="geometry">
            <mxPoint x="540" y="480" as="sourcePoint" />
            <mxPoint x="590" y="430" as="targetPoint" />
          </mxGeometry>
        </mxCell>
        <mxCell id="XMvrOeV04oSUWpngeJ3K-35" value="" style="endArrow=none;html=1;rounded=0;entryX=1;entryY=0.5;entryDx=0;entryDy=0;entryPerimeter=0;exitX=0;exitY=0.5;exitDx=0;exitDy=0;exitPerimeter=0;" parent="1" source="XMvrOeV04oSUWpngeJ3K-11" target="XMvrOeV04oSUWpngeJ3K-6" edge="1">
          <mxGeometry width="50" height="50" relative="1" as="geometry">
            <mxPoint x="540" y="480" as="sourcePoint" />
            <mxPoint x="590" y="430" as="targetPoint" />
          </mxGeometry>
        </mxCell>
        <mxCell id="XMvrOeV04oSUWpngeJ3K-36" value="" style="endArrow=none;html=1;rounded=0;entryX=0;entryY=0.5;entryDx=0;entryDy=0;entryPerimeter=0;exitX=1;exitY=0.5;exitDx=0;exitDy=0;exitPerimeter=0;" parent="1" source="XMvrOeV04oSUWpngeJ3K-6" target="XMvrOeV04oSUWpngeJ3K-10" edge="1">
          <mxGeometry width="50" height="50" relative="1" as="geometry">
            <mxPoint x="540" y="480" as="sourcePoint" />
            <mxPoint x="590" y="430" as="targetPoint" />
          </mxGeometry>
        </mxCell>
        <mxCell id="XMvrOeV04oSUWpngeJ3K-37" value="" style="endArrow=none;html=1;rounded=0;entryX=0;entryY=0.5;entryDx=0;entryDy=0;entryPerimeter=0;exitX=0.88;exitY=0.9;exitDx=0;exitDy=0;exitPerimeter=0;" parent="1" source="XMvrOeV04oSUWpngeJ3K-5" target="XMvrOeV04oSUWpngeJ3K-11" edge="1">
          <mxGeometry width="50" height="50" relative="1" as="geometry">
            <mxPoint x="540" y="480" as="sourcePoint" />
            <mxPoint x="590" y="430" as="targetPoint" />
          </mxGeometry>
        </mxCell>
        <mxCell id="XMvrOeV04oSUWpngeJ3K-38" value="" style="endArrow=none;html=1;rounded=0;entryX=0.98;entryY=0.5;entryDx=0;entryDy=0;entryPerimeter=0;exitX=0;exitY=0.5;exitDx=0;exitDy=0;exitPerimeter=0;" parent="1" source="XMvrOeV04oSUWpngeJ3K-9" target="XMvrOeV04oSUWpngeJ3K-12" edge="1">
          <mxGeometry width="50" height="50" relative="1" as="geometry">
            <mxPoint x="540" y="480" as="sourcePoint" />
            <mxPoint x="590" y="430" as="targetPoint" />
          </mxGeometry>
        </mxCell>
        <mxCell id="XMvrOeV04oSUWpngeJ3K-39" value="" style="endArrow=none;html=1;rounded=0;entryX=0.98;entryY=0.5;entryDx=0;entryDy=0;entryPerimeter=0;exitX=0;exitY=0.5;exitDx=0;exitDy=0;exitPerimeter=0;" parent="1" source="XMvrOeV04oSUWpngeJ3K-9" target="XMvrOeV04oSUWpngeJ3K-13" edge="1">
          <mxGeometry width="50" height="50" relative="1" as="geometry">
            <mxPoint x="540" y="480" as="sourcePoint" />
            <mxPoint x="590" y="430" as="targetPoint" />
          </mxGeometry>
        </mxCell>
        <mxCell id="XMvrOeV04oSUWpngeJ3K-40" value="" style="endArrow=none;html=1;rounded=0;entryX=0.98;entryY=0.5;entryDx=0;entryDy=0;entryPerimeter=0;exitX=0;exitY=0.5;exitDx=0;exitDy=0;exitPerimeter=0;" parent="1" source="XMvrOeV04oSUWpngeJ3K-9" target="XMvrOeV04oSUWpngeJ3K-14" edge="1">
          <mxGeometry width="50" height="50" relative="1" as="geometry">
            <mxPoint x="540" y="480" as="sourcePoint" />
            <mxPoint x="590" y="430" as="targetPoint" />
          </mxGeometry>
        </mxCell>
        <mxCell id="XMvrOeV04oSUWpngeJ3K-41" value="" style="endArrow=none;html=1;rounded=0;entryX=0.98;entryY=0.5;entryDx=0;entryDy=0;entryPerimeter=0;exitX=0;exitY=0.5;exitDx=0;exitDy=0;exitPerimeter=0;" parent="1" source="XMvrOeV04oSUWpngeJ3K-8" target="XMvrOeV04oSUWpngeJ3K-15" edge="1">
          <mxGeometry width="50" height="50" relative="1" as="geometry">
            <mxPoint x="540" y="480" as="sourcePoint" />
            <mxPoint x="590" y="430" as="targetPoint" />
          </mxGeometry>
        </mxCell>
        <mxCell id="XMvrOeV04oSUWpngeJ3K-42" value="" style="endArrow=none;html=1;rounded=0;exitX=0.98;exitY=0.5;exitDx=0;exitDy=0;exitPerimeter=0;entryX=0;entryY=0.5;entryDx=0;entryDy=0;entryPerimeter=0;" parent="1" source="XMvrOeV04oSUWpngeJ3K-16" target="XMvrOeV04oSUWpngeJ3K-8" edge="1">
          <mxGeometry width="50" height="50" relative="1" as="geometry">
            <mxPoint x="540" y="480" as="sourcePoint" />
            <mxPoint x="590" y="430" as="targetPoint" />
          </mxGeometry>
        </mxCell>
        <mxCell id="XMvrOeV04oSUWpngeJ3K-43" value="" style="endArrow=none;html=1;rounded=0;exitX=1;exitY=0;exitDx=0;exitDy=0;exitPerimeter=0;entryX=0;entryY=0.5;entryDx=0;entryDy=0;entryPerimeter=0;" parent="1" source="XMvrOeV04oSUWpngeJ3K-17" target="XMvrOeV04oSUWpngeJ3K-8" edge="1">
          <mxGeometry width="50" height="50" relative="1" as="geometry">
            <mxPoint x="540" y="480" as="sourcePoint" />
            <mxPoint x="590" y="430" as="targetPoint" />
          </mxGeometry>
        </mxCell>
        <mxCell id="XMvrOeV04oSUWpngeJ3K-44" value="" style="endArrow=none;html=1;rounded=0;entryX=0;entryY=0.5;entryDx=0;entryDy=0;entryPerimeter=0;exitX=1;exitY=0.5;exitDx=0;exitDy=0;exitPerimeter=0;" parent="1" source="XMvrOeV04oSUWpngeJ3K-10" target="XMvrOeV04oSUWpngeJ3K-21" edge="1">
          <mxGeometry width="50" height="50" relative="1" as="geometry">
            <mxPoint x="540" y="480" as="sourcePoint" />
            <mxPoint x="590" y="430" as="targetPoint" />
          </mxGeometry>
        </mxCell>
        <mxCell id="XMvrOeV04oSUWpngeJ3K-45" value="" style="endArrow=none;html=1;rounded=0;entryX=0;entryY=0.5;entryDx=0;entryDy=0;entryPerimeter=0;exitX=1;exitY=0.5;exitDx=0;exitDy=0;exitPerimeter=0;" parent="1" source="XMvrOeV04oSUWpngeJ3K-10" target="XMvrOeV04oSUWpngeJ3K-22" edge="1">
          <mxGeometry width="50" height="50" relative="1" as="geometry">
            <mxPoint x="540" y="480" as="sourcePoint" />
            <mxPoint x="590" y="430" as="targetPoint" />
          </mxGeometry>
        </mxCell>
        <mxCell id="XMvrOeV04oSUWpngeJ3K-46" value="" style="endArrow=none;html=1;rounded=0;entryX=0;entryY=0.5;entryDx=0;entryDy=0;entryPerimeter=0;exitX=1;exitY=0.5;exitDx=0;exitDy=0;exitPerimeter=0;" parent="1" source="XMvrOeV04oSUWpngeJ3K-11" target="XMvrOeV04oSUWpngeJ3K-18" edge="1">
          <mxGeometry width="50" height="50" relative="1" as="geometry">
            <mxPoint x="540" y="480" as="sourcePoint" />
            <mxPoint x="590" y="430" as="targetPoint" />
          </mxGeometry>
        </mxCell>
        <mxCell id="XMvrOeV04oSUWpngeJ3K-47" value="" style="endArrow=none;html=1;rounded=0;entryX=0;entryY=0.5;entryDx=0;entryDy=0;entryPerimeter=0;exitX=1;exitY=0.5;exitDx=0;exitDy=0;exitPerimeter=0;" parent="1" source="XMvrOeV04oSUWpngeJ3K-11" target="XMvrOeV04oSUWpngeJ3K-20" edge="1">
          <mxGeometry width="50" height="50" relative="1" as="geometry">
            <mxPoint x="540" y="480" as="sourcePoint" />
            <mxPoint x="590" y="430" as="targetPoint" />
          </mxGeometry>
        </mxCell>
        <mxCell id="XMvrOeV04oSUWpngeJ3K-48" value="" style="endArrow=none;html=1;rounded=0;entryX=0;entryY=0.5;entryDx=0;entryDy=0;entryPerimeter=0;exitX=1;exitY=0.5;exitDx=0;exitDy=0;exitPerimeter=0;" parent="1" source="XMvrOeV04oSUWpngeJ3K-11" target="XMvrOeV04oSUWpngeJ3K-19" edge="1">
          <mxGeometry width="50" height="50" relative="1" as="geometry">
            <mxPoint x="540" y="480" as="sourcePoint" />
            <mxPoint x="590" y="430" as="targetPoint" />
          </mxGeometry>
        </mxCell>
        <mxCell id="XMvrOeV04oSUWpngeJ3K-49" value="" style="endArrow=none;html=1;rounded=0;entryX=0;entryY=0.5;entryDx=0;entryDy=0;entryPerimeter=0;exitX=1;exitY=0.5;exitDx=0;exitDy=0;exitPerimeter=0;" parent="1" source="XMvrOeV04oSUWpngeJ3K-10" target="XMvrOeV04oSUWpngeJ3K-23" edge="1">
          <mxGeometry width="50" height="50" relative="1" as="geometry">
            <mxPoint x="540" y="480" as="sourcePoint" />
            <mxPoint x="590" y="430" as="targetPoint" />
          </mxGeometry>
        </mxCell>
        <mxCell id="XMvrOeV04oSUWpngeJ3K-50" value="" style="endArrow=none;html=1;rounded=0;entryX=0.98;entryY=0.5;entryDx=0;entryDy=0;entryPerimeter=0;exitX=0.11;exitY=0.08;exitDx=0;exitDy=0;exitPerimeter=0;" parent="1" source="XMvrOeV04oSUWpngeJ3K-8" target="XMvrOeV04oSUWpngeJ3K-12" edge="1">
          <mxGeometry width="50" height="50" relative="1" as="geometry">
            <mxPoint x="540" y="480" as="sourcePoint" />
            <mxPoint x="590" y="430" as="targetPoint" />
          </mxGeometry>
        </mxCell>
        <mxCell id="XMvrOeV04oSUWpngeJ3K-51" value="" style="endArrow=none;html=1;rounded=0;entryX=0.98;entryY=0.5;entryDx=0;entryDy=0;entryPerimeter=0;exitX=0.11;exitY=0.08;exitDx=0;exitDy=0;exitPerimeter=0;" parent="1" source="XMvrOeV04oSUWpngeJ3K-8" target="XMvrOeV04oSUWpngeJ3K-13" edge="1">
          <mxGeometry width="50" height="50" relative="1" as="geometry">
            <mxPoint x="540" y="480" as="sourcePoint" />
            <mxPoint x="590" y="430" as="targetPoint" />
          </mxGeometry>
        </mxCell>
        <mxCell id="XMvrOeV04oSUWpngeJ3K-52" value="" style="endArrow=none;html=1;rounded=0;entryX=0.98;entryY=0.5;entryDx=0;entryDy=0;entryPerimeter=0;exitX=0;exitY=0.5;exitDx=0;exitDy=0;exitPerimeter=0;" parent="1" source="XMvrOeV04oSUWpngeJ3K-8" target="XMvrOeV04oSUWpngeJ3K-14" edge="1">
          <mxGeometry width="50" height="50" relative="1" as="geometry">
            <mxPoint x="540" y="480" as="sourcePoint" />
            <mxPoint x="590" y="430" as="targetPoint" />
          </mxGeometry>
        </mxCell>
        <mxCell id="XMvrOeV04oSUWpngeJ3K-53" value="" style="endArrow=none;html=1;rounded=0;exitX=0.98;exitY=0.5;exitDx=0;exitDy=0;exitPerimeter=0;entryX=0;entryY=1;entryDx=0;entryDy=0;entryPerimeter=0;" parent="1" source="XMvrOeV04oSUWpngeJ3K-15" target="XMvrOeV04oSUWpngeJ3K-9" edge="1">
          <mxGeometry width="50" height="50" relative="1" as="geometry">
            <mxPoint x="540" y="480" as="sourcePoint" />
            <mxPoint x="590" y="430" as="targetPoint" />
          </mxGeometry>
        </mxCell>
        <mxCell id="XMvrOeV04oSUWpngeJ3K-54" value="" style="endArrow=none;html=1;rounded=0;exitX=0.98;exitY=0.5;exitDx=0;exitDy=0;exitPerimeter=0;entryX=0;entryY=1;entryDx=0;entryDy=0;entryPerimeter=0;" parent="1" source="XMvrOeV04oSUWpngeJ3K-16" target="XMvrOeV04oSUWpngeJ3K-9" edge="1">
          <mxGeometry width="50" height="50" relative="1" as="geometry">
            <mxPoint x="540" y="480" as="sourcePoint" />
            <mxPoint x="590" y="430" as="targetPoint" />
          </mxGeometry>
        </mxCell>
        <mxCell id="XMvrOeV04oSUWpngeJ3K-55" value="" style="endArrow=none;html=1;rounded=0;exitX=1;exitY=0;exitDx=0;exitDy=0;exitPerimeter=0;entryX=0;entryY=1;entryDx=0;entryDy=0;entryPerimeter=0;" parent="1" source="XMvrOeV04oSUWpngeJ3K-17" target="XMvrOeV04oSUWpngeJ3K-9" edge="1">
          <mxGeometry width="50" height="50" relative="1" as="geometry">
            <mxPoint x="540" y="480" as="sourcePoint" />
            <mxPoint x="590" y="430" as="targetPoint" />
          </mxGeometry>
        </mxCell>
        <mxCell id="XMvrOeV04oSUWpngeJ3K-56" value="" style="endArrow=none;html=1;rounded=0;entryX=0;entryY=0.98;entryDx=0;entryDy=0;entryPerimeter=0;exitX=1;exitY=0;exitDx=0;exitDy=0;exitPerimeter=0;" parent="1" source="XMvrOeV04oSUWpngeJ3K-11" target="XMvrOeV04oSUWpngeJ3K-21" edge="1">
          <mxGeometry width="50" height="50" relative="1" as="geometry">
            <mxPoint x="540" y="480" as="sourcePoint" />
            <mxPoint x="590" y="430" as="targetPoint" />
          </mxGeometry>
        </mxCell>
        <mxCell id="XMvrOeV04oSUWpngeJ3K-57" value="" style="endArrow=none;html=1;rounded=0;entryX=0;entryY=0.98;entryDx=0;entryDy=0;entryPerimeter=0;exitX=1;exitY=0;exitDx=0;exitDy=0;exitPerimeter=0;" parent="1" source="XMvrOeV04oSUWpngeJ3K-11" target="XMvrOeV04oSUWpngeJ3K-22" edge="1">
          <mxGeometry width="50" height="50" relative="1" as="geometry">
            <mxPoint x="540" y="480" as="sourcePoint" />
            <mxPoint x="590" y="430" as="targetPoint" />
          </mxGeometry>
        </mxCell>
        <mxCell id="XMvrOeV04oSUWpngeJ3K-58" value="" style="endArrow=none;html=1;rounded=0;entryX=0;entryY=0.98;entryDx=0;entryDy=0;entryPerimeter=0;exitX=1;exitY=0;exitDx=0;exitDy=0;exitPerimeter=0;" parent="1" source="XMvrOeV04oSUWpngeJ3K-11" target="XMvrOeV04oSUWpngeJ3K-23" edge="1">
          <mxGeometry width="50" height="50" relative="1" as="geometry">
            <mxPoint x="540" y="480" as="sourcePoint" />
            <mxPoint x="590" y="430" as="targetPoint" />
          </mxGeometry>
        </mxCell>
        <mxCell id="XMvrOeV04oSUWpngeJ3K-59" value="" style="endArrow=none;html=1;rounded=0;entryX=0;entryY=0.5;entryDx=0;entryDy=0;entryPerimeter=0;exitX=0.92;exitY=0.91;exitDx=0;exitDy=0;exitPerimeter=0;" parent="1" source="XMvrOeV04oSUWpngeJ3K-10" target="XMvrOeV04oSUWpngeJ3K-20" edge="1">
          <mxGeometry width="50" height="50" relative="1" as="geometry">
            <mxPoint x="540" y="480" as="sourcePoint" />
            <mxPoint x="590" y="430" as="targetPoint" />
          </mxGeometry>
        </mxCell>
        <mxCell id="XMvrOeV04oSUWpngeJ3K-60" value="" style="endArrow=none;html=1;rounded=0;entryX=0;entryY=0.5;entryDx=0;entryDy=0;entryPerimeter=0;exitX=0.92;exitY=0.91;exitDx=0;exitDy=0;exitPerimeter=0;" parent="1" source="XMvrOeV04oSUWpngeJ3K-10" target="XMvrOeV04oSUWpngeJ3K-19" edge="1">
          <mxGeometry width="50" height="50" relative="1" as="geometry">
            <mxPoint x="540" y="480" as="sourcePoint" />
            <mxPoint x="590" y="430" as="targetPoint" />
          </mxGeometry>
        </mxCell>
        <mxCell id="XMvrOeV04oSUWpngeJ3K-61" value="" style="endArrow=none;html=1;rounded=0;entryX=0;entryY=0.5;entryDx=0;entryDy=0;entryPerimeter=0;exitX=0.92;exitY=0.91;exitDx=0;exitDy=0;exitPerimeter=0;" parent="1" source="XMvrOeV04oSUWpngeJ3K-10" target="XMvrOeV04oSUWpngeJ3K-18" edge="1">
          <mxGeometry width="50" height="50" relative="1" as="geometry">
            <mxPoint x="540" y="480" as="sourcePoint" />
            <mxPoint x="590" y="430" as="targetPoint" />
          </mxGeometry>
        </mxCell>
        <mxCell id="XMvrOeV04oSUWpngeJ3K-62" value="" style="shape=mxgraph.cisco.computers_and_peripherals.macintosh;sketch=0;html=1;pointerEvents=1;dashed=0;fillColor=#036897;strokeColor=#ffffff;strokeWidth=2;verticalLabelPosition=bottom;verticalAlign=top;align=center;outlineConnect=0;" parent="1" vertex="1">
          <mxGeometry x="-350" y="-86" width="99" height="64" as="geometry" />
        </mxCell>
        <mxCell id="XMvrOeV04oSUWpngeJ3K-64" value="" style="shape=mxgraph.cisco.computers_and_peripherals.printer;sketch=0;html=1;pointerEvents=1;dashed=0;fillColor=#036897;strokeColor=#ffffff;strokeWidth=2;verticalLabelPosition=bottom;verticalAlign=top;align=center;outlineConnect=0;" parent="1" vertex="1">
          <mxGeometry x="-230" y="-100" width="91" height="34" as="geometry" />
        </mxCell>
        <mxCell id="XMvrOeV04oSUWpngeJ3K-65" value="" style="shape=mxgraph.cisco.modems_and_phones.cell_phone;sketch=0;html=1;pointerEvents=1;dashed=0;fillColor=#036897;strokeColor=#ffffff;strokeWidth=2;verticalLabelPosition=bottom;verticalAlign=top;align=center;outlineConnect=0;" parent="1" vertex="1">
          <mxGeometry x="-130" y="-230" width="34" height="58" as="geometry" />
        </mxCell>
        <mxCell id="XMvrOeV04oSUWpngeJ3K-66" value="" style="shape=mxgraph.cisco.wireless.wireless_transport;sketch=0;html=1;pointerEvents=1;dashed=0;fillColor=#036897;strokeColor=#ffffff;strokeWidth=2;verticalLabelPosition=bottom;verticalAlign=top;align=center;outlineConnect=0;" parent="1" vertex="1">
          <mxGeometry x="-10" y="-130" width="60" height="44" as="geometry" />
        </mxCell>
        <mxCell id="XMvrOeV04oSUWpngeJ3K-67" value="" style="shape=mxgraph.cisco.computers_and_peripherals.macintosh;sketch=0;html=1;pointerEvents=1;dashed=0;fillColor=#036897;strokeColor=#ffffff;strokeWidth=2;verticalLabelPosition=bottom;verticalAlign=top;align=center;outlineConnect=0;" parent="1" vertex="1">
          <mxGeometry x="-370" y="86" width="99" height="64" as="geometry" />
        </mxCell>
        <mxCell id="XMvrOeV04oSUWpngeJ3K-68" value="" style="shape=mxgraph.cisco.computers_and_peripherals.printer;sketch=0;html=1;pointerEvents=1;dashed=0;fillColor=#036897;strokeColor=#ffffff;strokeWidth=2;verticalLabelPosition=bottom;verticalAlign=top;align=center;outlineConnect=0;" parent="1" vertex="1">
          <mxGeometry x="-261" y="86" width="91" height="34" as="geometry" />
        </mxCell>
        <mxCell id="XMvrOeV04oSUWpngeJ3K-69" value="" style="shape=mxgraph.cisco.modems_and_phones.cell_phone;sketch=0;html=1;pointerEvents=1;dashed=0;fillColor=#036897;strokeColor=#ffffff;strokeWidth=2;verticalLabelPosition=bottom;verticalAlign=top;align=center;outlineConnect=0;" parent="1" vertex="1">
          <mxGeometry x="-183" y="20" width="34" height="58" as="geometry" />
        </mxCell>
        <mxCell id="XMvrOeV04oSUWpngeJ3K-70" value="" style="shape=mxgraph.cisco.wireless.wireless_transport;sketch=0;html=1;pointerEvents=1;dashed=0;fillColor=#036897;strokeColor=#ffffff;strokeWidth=2;verticalLabelPosition=bottom;verticalAlign=top;align=center;outlineConnect=0;" parent="1" vertex="1">
          <mxGeometry x="-50" y="80" width="60" height="37" as="geometry" />
        </mxCell>
        <mxCell id="XMvrOeV04oSUWpngeJ3K-71" value="" style="shape=mxgraph.arrows2.wedgeArrowDashed2;html=1;bendable=0;startWidth=50;stepSize=15;rounded=0;entryX=1;entryY=0;entryDx=0;entryDy=0;entryPerimeter=0;" parent="1" target="XMvrOeV04oSUWpngeJ3K-65" edge="1">
          <mxGeometry width="100" height="100" relative="1" as="geometry">
            <mxPoint x="-30" y="-140" as="sourcePoint" />
            <mxPoint x="10" y="-240" as="targetPoint" />
          </mxGeometry>
        </mxCell>
        <mxCell id="XMvrOeV04oSUWpngeJ3K-72" value="" style="endArrow=none;html=1;rounded=0;exitX=0;exitY=0.5;exitDx=0;exitDy=0;exitPerimeter=0;entryX=0.5;entryY=1;entryDx=0;entryDy=0;entryPerimeter=0;" parent="1" source="XMvrOeV04oSUWpngeJ3K-12" target="XMvrOeV04oSUWpngeJ3K-64" edge="1">
          <mxGeometry width="50" height="50" relative="1" as="geometry">
            <mxPoint x="-110" y="240" as="sourcePoint" />
            <mxPoint x="-60" y="190" as="targetPoint" />
          </mxGeometry>
        </mxCell>
        <mxCell id="XMvrOeV04oSUWpngeJ3K-73" value="" style="endArrow=none;html=1;rounded=0;entryX=0.965;entryY=0.95;entryDx=0;entryDy=0;entryPerimeter=0;exitX=0;exitY=0.5;exitDx=0;exitDy=0;exitPerimeter=0;" parent="1" source="XMvrOeV04oSUWpngeJ3K-12" target="XMvrOeV04oSUWpngeJ3K-66" edge="1">
          <mxGeometry width="50" height="50" relative="1" as="geometry">
            <mxPoint x="-110" y="240" as="sourcePoint" />
            <mxPoint x="-60" y="190" as="targetPoint" />
          </mxGeometry>
        </mxCell>
        <mxCell id="XMvrOeV04oSUWpngeJ3K-74" value="" style="endArrow=none;html=1;rounded=0;entryX=0;entryY=0.5;entryDx=0;entryDy=0;entryPerimeter=0;exitX=0.87;exitY=1;exitDx=0;exitDy=0;exitPerimeter=0;" parent="1" source="XMvrOeV04oSUWpngeJ3K-62" target="XMvrOeV04oSUWpngeJ3K-12" edge="1">
          <mxGeometry width="50" height="50" relative="1" as="geometry">
            <mxPoint x="-110" y="240" as="sourcePoint" />
            <mxPoint x="-60" y="190" as="targetPoint" />
          </mxGeometry>
        </mxCell>
        <mxCell id="XMvrOeV04oSUWpngeJ3K-75" value="" style="endArrow=none;html=1;rounded=0;entryX=0.965;entryY=0.95;entryDx=0;entryDy=0;entryPerimeter=0;exitX=0;exitY=0.5;exitDx=0;exitDy=0;exitPerimeter=0;" parent="1" source="XMvrOeV04oSUWpngeJ3K-13" target="XMvrOeV04oSUWpngeJ3K-70" edge="1">
          <mxGeometry width="50" height="50" relative="1" as="geometry">
            <mxPoint x="-180" y="210" as="sourcePoint" />
            <mxPoint x="-130" y="160" as="targetPoint" />
          </mxGeometry>
        </mxCell>
        <mxCell id="XMvrOeV04oSUWpngeJ3K-76" value="" style="endArrow=none;html=1;rounded=0;exitX=0.5;exitY=1;exitDx=0;exitDy=0;exitPerimeter=0;entryX=0;entryY=0.5;entryDx=0;entryDy=0;entryPerimeter=0;" parent="1" source="XMvrOeV04oSUWpngeJ3K-68" target="XMvrOeV04oSUWpngeJ3K-13" edge="1">
          <mxGeometry width="50" height="50" relative="1" as="geometry">
            <mxPoint x="-180" y="210" as="sourcePoint" />
            <mxPoint x="-130" y="160" as="targetPoint" />
          </mxGeometry>
        </mxCell>
        <mxCell id="XMvrOeV04oSUWpngeJ3K-77" value="" style="endArrow=none;html=1;rounded=0;exitX=0.87;exitY=1;exitDx=0;exitDy=0;exitPerimeter=0;entryX=0;entryY=0.5;entryDx=0;entryDy=0;entryPerimeter=0;" parent="1" source="XMvrOeV04oSUWpngeJ3K-67" target="XMvrOeV04oSUWpngeJ3K-13" edge="1">
          <mxGeometry width="50" height="50" relative="1" as="geometry">
            <mxPoint x="-180" y="210" as="sourcePoint" />
            <mxPoint x="-130" y="160" as="targetPoint" />
          </mxGeometry>
        </mxCell>
        <mxCell id="XMvrOeV04oSUWpngeJ3K-78" value="" style="shape=mxgraph.cisco.computers_and_peripherals.macintosh;sketch=0;html=1;pointerEvents=1;dashed=0;fillColor=#036897;strokeColor=#ffffff;strokeWidth=2;verticalLabelPosition=bottom;verticalAlign=top;align=center;outlineConnect=0;" parent="1" vertex="1">
          <mxGeometry x="-380" y="250" width="99" height="64" as="geometry" />
        </mxCell>
        <mxCell id="XMvrOeV04oSUWpngeJ3K-79" value="" style="shape=mxgraph.cisco.computers_and_peripherals.printer;sketch=0;html=1;pointerEvents=1;dashed=0;fillColor=#036897;strokeColor=#ffffff;strokeWidth=2;verticalLabelPosition=bottom;verticalAlign=top;align=center;outlineConnect=0;" parent="1" vertex="1">
          <mxGeometry x="-261" y="254" width="91" height="34" as="geometry" />
        </mxCell>
        <mxCell id="XMvrOeV04oSUWpngeJ3K-80" value="" style="shape=mxgraph.cisco.modems_and_phones.cell_phone;sketch=0;html=1;pointerEvents=1;dashed=0;fillColor=#036897;strokeColor=#ffffff;strokeWidth=2;verticalLabelPosition=bottom;verticalAlign=top;align=center;outlineConnect=0;" parent="1" vertex="1">
          <mxGeometry x="-183" y="170" width="34" height="58" as="geometry" />
        </mxCell>
        <mxCell id="XMvrOeV04oSUWpngeJ3K-81" value="" style="shape=mxgraph.cisco.wireless.wireless_transport;sketch=0;html=1;pointerEvents=1;dashed=0;fillColor=#036897;strokeColor=#ffffff;strokeWidth=2;verticalLabelPosition=bottom;verticalAlign=top;align=center;outlineConnect=0;" parent="1" vertex="1">
          <mxGeometry x="-50" y="210" width="60" height="40" as="geometry" />
        </mxCell>
        <mxCell id="XMvrOeV04oSUWpngeJ3K-94" value="" style="endArrow=none;html=1;rounded=0;entryX=0;entryY=0.5;entryDx=0;entryDy=0;entryPerimeter=0;exitX=0.965;exitY=0.95;exitDx=0;exitDy=0;exitPerimeter=0;" parent="1" source="XMvrOeV04oSUWpngeJ3K-81" target="XMvrOeV04oSUWpngeJ3K-14" edge="1">
          <mxGeometry width="50" height="50" relative="1" as="geometry">
            <mxPoint x="-260" y="570" as="sourcePoint" />
            <mxPoint x="-210" y="520" as="targetPoint" />
          </mxGeometry>
        </mxCell>
        <mxCell id="XMvrOeV04oSUWpngeJ3K-95" value="" style="endArrow=none;html=1;rounded=0;entryX=0;entryY=0.5;entryDx=0;entryDy=0;entryPerimeter=0;exitX=0.5;exitY=0;exitDx=0;exitDy=0;exitPerimeter=0;" parent="1" source="XMvrOeV04oSUWpngeJ3K-79" target="XMvrOeV04oSUWpngeJ3K-14" edge="1">
          <mxGeometry width="50" height="50" relative="1" as="geometry">
            <mxPoint x="-260" y="380" as="sourcePoint" />
            <mxPoint x="-210" y="330" as="targetPoint" />
          </mxGeometry>
        </mxCell>
        <mxCell id="XMvrOeV04oSUWpngeJ3K-96" value="" style="endArrow=none;html=1;rounded=0;entryX=0;entryY=0.5;entryDx=0;entryDy=0;entryPerimeter=0;exitX=0.87;exitY=1;exitDx=0;exitDy=0;exitPerimeter=0;" parent="1" source="XMvrOeV04oSUWpngeJ3K-78" target="XMvrOeV04oSUWpngeJ3K-14" edge="1">
          <mxGeometry width="50" height="50" relative="1" as="geometry">
            <mxPoint x="-260" y="380" as="sourcePoint" />
            <mxPoint x="-210" y="330" as="targetPoint" />
          </mxGeometry>
        </mxCell>
        <mxCell id="XMvrOeV04oSUWpngeJ3K-107" value="" style="shape=mxgraph.cisco.computers_and_peripherals.macintosh;sketch=0;html=1;pointerEvents=1;dashed=0;fillColor=#036897;strokeColor=#ffffff;strokeWidth=2;verticalLabelPosition=bottom;verticalAlign=top;align=center;outlineConnect=0;" parent="1" vertex="1">
          <mxGeometry x="1442" y="-146" width="99" height="64" as="geometry" />
        </mxCell>
        <mxCell id="XMvrOeV04oSUWpngeJ3K-108" value="" style="shape=mxgraph.cisco.computers_and_peripherals.printer;sketch=0;html=1;pointerEvents=1;dashed=0;fillColor=#036897;strokeColor=#ffffff;strokeWidth=2;verticalLabelPosition=bottom;verticalAlign=top;align=center;outlineConnect=0;" parent="1" vertex="1">
          <mxGeometry x="1317" y="-131" width="91" height="34" as="geometry" />
        </mxCell>
        <mxCell id="XMvrOeV04oSUWpngeJ3K-109" value="" style="shape=mxgraph.cisco.modems_and_phones.cell_phone;sketch=0;html=1;pointerEvents=1;dashed=0;fillColor=#036897;strokeColor=#ffffff;strokeWidth=2;verticalLabelPosition=bottom;verticalAlign=top;align=center;outlineConnect=0;" parent="1" vertex="1">
          <mxGeometry x="1374" y="-270" width="34" height="58" as="geometry" />
        </mxCell>
        <mxCell id="XMvrOeV04oSUWpngeJ3K-110" value="" style="shape=mxgraph.cisco.wireless.wireless_transport;sketch=0;html=1;pointerEvents=1;dashed=0;fillColor=#036897;strokeColor=#ffffff;strokeWidth=2;verticalLabelPosition=bottom;verticalAlign=top;align=center;outlineConnect=0;" parent="1" vertex="1">
          <mxGeometry x="1189" y="-150" width="51" height="34" as="geometry" />
        </mxCell>
        <mxCell id="XMvrOeV04oSUWpngeJ3K-111" value="" style="endArrow=none;html=1;rounded=0;exitX=1;exitY=0;exitDx=0;exitDy=0;exitPerimeter=0;entryX=0;entryY=1;entryDx=0;entryDy=0;entryPerimeter=0;" parent="1" source="XMvrOeV04oSUWpngeJ3K-21" target="XMvrOeV04oSUWpngeJ3K-110" edge="1">
          <mxGeometry width="50" height="50" relative="1" as="geometry">
            <mxPoint x="1170" y="-90" as="sourcePoint" />
            <mxPoint x="1539" y="10" as="targetPoint" />
          </mxGeometry>
        </mxCell>
        <mxCell id="KnP2Nq6tkSezV6llHABw-1" value="" style="shape=mxgraph.cisco.computers_and_peripherals.macintosh;sketch=0;html=1;pointerEvents=1;dashed=0;fillColor=#036897;strokeColor=#ffffff;strokeWidth=2;verticalLabelPosition=bottom;verticalAlign=top;align=center;outlineConnect=0;" parent="1" vertex="1">
          <mxGeometry x="1470" y="86" width="99" height="64" as="geometry" />
        </mxCell>
        <mxCell id="KnP2Nq6tkSezV6llHABw-2" value="" style="shape=mxgraph.cisco.computers_and_peripherals.printer;sketch=0;html=1;pointerEvents=1;dashed=0;fillColor=#036897;strokeColor=#ffffff;strokeWidth=2;verticalLabelPosition=bottom;verticalAlign=top;align=center;outlineConnect=0;" parent="1" vertex="1">
          <mxGeometry x="1356.5" y="73" width="91" height="34" as="geometry" />
        </mxCell>
        <mxCell id="KnP2Nq6tkSezV6llHABw-3" value="" style="shape=mxgraph.cisco.modems_and_phones.cell_phone;sketch=0;html=1;pointerEvents=1;dashed=0;fillColor=#036897;strokeColor=#ffffff;strokeWidth=2;verticalLabelPosition=bottom;verticalAlign=top;align=center;outlineConnect=0;" parent="1" vertex="1">
          <mxGeometry x="1356.5" y="-30" width="34" height="58" as="geometry" />
        </mxCell>
        <mxCell id="KnP2Nq6tkSezV6llHABw-4" value="" style="shape=mxgraph.cisco.wireless.wireless_transport;sketch=0;html=1;pointerEvents=1;dashed=0;fillColor=#036897;strokeColor=#ffffff;strokeWidth=2;verticalLabelPosition=bottom;verticalAlign=top;align=center;outlineConnect=0;" parent="1" vertex="1">
          <mxGeometry x="1220" y="50" width="50" height="36" as="geometry" />
        </mxCell>
        <mxCell id="KnP2Nq6tkSezV6llHABw-7" value="" style="shape=mxgraph.cisco.computers_and_peripherals.printer;sketch=0;html=1;pointerEvents=1;dashed=0;fillColor=#036897;strokeColor=#ffffff;strokeWidth=2;verticalLabelPosition=bottom;verticalAlign=top;align=center;outlineConnect=0;" parent="1" vertex="1">
          <mxGeometry x="1362" y="258" width="91" height="34" as="geometry" />
        </mxCell>
        <mxCell id="KnP2Nq6tkSezV6llHABw-8" value="" style="shape=mxgraph.cisco.modems_and_phones.cell_phone;sketch=0;html=1;pointerEvents=1;dashed=0;fillColor=#036897;strokeColor=#ffffff;strokeWidth=2;verticalLabelPosition=bottom;verticalAlign=top;align=center;outlineConnect=0;" parent="1" vertex="1">
          <mxGeometry x="1375" y="170" width="34" height="58" as="geometry" />
        </mxCell>
        <mxCell id="KnP2Nq6tkSezV6llHABw-9" value="" style="shape=mxgraph.cisco.wireless.wireless_transport;sketch=0;html=1;pointerEvents=1;dashed=0;fillColor=#036897;strokeColor=#ffffff;strokeWidth=2;verticalLabelPosition=bottom;verticalAlign=top;align=center;outlineConnect=0;" parent="1" vertex="1">
          <mxGeometry x="1210" y="190" width="50" height="38" as="geometry" />
        </mxCell>
        <mxCell id="KnP2Nq6tkSezV6llHABw-10" value="" style="endArrow=none;html=1;rounded=0;exitX=1;exitY=0;exitDx=0;exitDy=0;exitPerimeter=0;entryX=0;entryY=1;entryDx=0;entryDy=0;entryPerimeter=0;" parent="1" source="XMvrOeV04oSUWpngeJ3K-23" target="KnP2Nq6tkSezV6llHABw-9" edge="1">
          <mxGeometry width="50" height="50" relative="1" as="geometry">
            <mxPoint x="1400" y="379" as="sourcePoint" />
            <mxPoint x="1769" y="479" as="targetPoint" />
          </mxGeometry>
        </mxCell>
        <mxCell id="KnP2Nq6tkSezV6llHABw-11" value="" style="shape=mxgraph.cisco.computers_and_peripherals.macintosh;sketch=0;html=1;pointerEvents=1;dashed=0;fillColor=#036897;strokeColor=#ffffff;strokeWidth=2;verticalLabelPosition=bottom;verticalAlign=top;align=center;outlineConnect=0;" parent="1" vertex="1">
          <mxGeometry x="1482.5" y="485" width="99" height="64" as="geometry" />
        </mxCell>
        <mxCell id="KnP2Nq6tkSezV6llHABw-12" value="" style="shape=mxgraph.cisco.computers_and_peripherals.printer;sketch=0;html=1;pointerEvents=1;dashed=0;fillColor=#036897;strokeColor=#ffffff;strokeWidth=2;verticalLabelPosition=bottom;verticalAlign=top;align=center;outlineConnect=0;" parent="1" vertex="1">
          <mxGeometry x="1387.5" y="473" width="91" height="34" as="geometry" />
        </mxCell>
        <mxCell id="KnP2Nq6tkSezV6llHABw-13" value="" style="shape=mxgraph.cisco.modems_and_phones.cell_phone;sketch=0;html=1;pointerEvents=1;dashed=0;fillColor=#036897;strokeColor=#ffffff;strokeWidth=2;verticalLabelPosition=bottom;verticalAlign=top;align=center;outlineConnect=0;" parent="1" vertex="1">
          <mxGeometry x="1376" y="396" width="34" height="58" as="geometry" />
        </mxCell>
        <mxCell id="KnP2Nq6tkSezV6llHABw-14" value="" style="shape=mxgraph.cisco.wireless.wireless_transport;sketch=0;html=1;pointerEvents=1;dashed=0;fillColor=#036897;strokeColor=#ffffff;strokeWidth=2;verticalLabelPosition=bottom;verticalAlign=top;align=center;outlineConnect=0;" parent="1" vertex="1">
          <mxGeometry x="1230" y="400" width="50" height="33" as="geometry" />
        </mxCell>
        <mxCell id="KnP2Nq6tkSezV6llHABw-15" value="" style="endArrow=none;html=1;rounded=0;exitX=1;exitY=0;exitDx=0;exitDy=0;exitPerimeter=0;entryX=0;entryY=1;entryDx=0;entryDy=0;entryPerimeter=0;" parent="1" source="XMvrOeV04oSUWpngeJ3K-18" target="KnP2Nq6tkSezV6llHABw-14" edge="1">
          <mxGeometry width="50" height="50" relative="1" as="geometry">
            <mxPoint x="1390" y="543" as="sourcePoint" />
            <mxPoint x="1759" y="643" as="targetPoint" />
          </mxGeometry>
        </mxCell>
        <mxCell id="KnP2Nq6tkSezV6llHABw-16" value="" style="shape=mxgraph.cisco.computers_and_peripherals.macintosh;sketch=0;html=1;pointerEvents=1;dashed=0;fillColor=#036897;strokeColor=#ffffff;strokeWidth=2;verticalLabelPosition=bottom;verticalAlign=top;align=center;outlineConnect=0;" parent="1" vertex="1">
          <mxGeometry x="1371" y="699" width="99" height="64" as="geometry" />
        </mxCell>
        <mxCell id="KnP2Nq6tkSezV6llHABw-17" value="" style="shape=mxgraph.cisco.computers_and_peripherals.printer;sketch=0;html=1;pointerEvents=1;dashed=0;fillColor=#036897;strokeColor=#ffffff;strokeWidth=2;verticalLabelPosition=bottom;verticalAlign=top;align=center;outlineConnect=0;" parent="1" vertex="1">
          <mxGeometry x="1453" y="631" width="91" height="34" as="geometry" />
        </mxCell>
        <mxCell id="KnP2Nq6tkSezV6llHABw-18" value="" style="shape=mxgraph.cisco.modems_and_phones.cell_phone;sketch=0;html=1;pointerEvents=1;dashed=0;fillColor=#036897;strokeColor=#ffffff;strokeWidth=2;verticalLabelPosition=bottom;verticalAlign=top;align=center;outlineConnect=0;" parent="1" vertex="1">
          <mxGeometry x="1356.5" y="550" width="34" height="58" as="geometry" />
        </mxCell>
        <mxCell id="KnP2Nq6tkSezV6llHABw-19" value="" style="shape=mxgraph.cisco.wireless.wireless_transport;sketch=0;html=1;pointerEvents=1;dashed=0;fillColor=#036897;strokeColor=#ffffff;strokeWidth=2;verticalLabelPosition=bottom;verticalAlign=top;align=center;outlineConnect=0;" parent="1" vertex="1">
          <mxGeometry x="1224" y="580" width="56" height="39" as="geometry" />
        </mxCell>
        <mxCell id="KnP2Nq6tkSezV6llHABw-20" value="" style="endArrow=none;html=1;rounded=0;exitX=1;exitY=0;exitDx=0;exitDy=0;exitPerimeter=0;entryX=0;entryY=1;entryDx=0;entryDy=0;entryPerimeter=0;" parent="1" source="XMvrOeV04oSUWpngeJ3K-19" target="KnP2Nq6tkSezV6llHABw-19" edge="1">
          <mxGeometry width="50" height="50" relative="1" as="geometry">
            <mxPoint x="1384" y="752" as="sourcePoint" />
            <mxPoint x="1753" y="852" as="targetPoint" />
          </mxGeometry>
        </mxCell>
        <mxCell id="KnP2Nq6tkSezV6llHABw-26" value="" style="endArrow=none;html=1;rounded=0;entryX=0;entryY=1;entryDx=0;entryDy=0;entryPerimeter=0;exitX=0.98;exitY=0.5;exitDx=0;exitDy=0;exitPerimeter=0;" parent="1" source="XMvrOeV04oSUWpngeJ3K-21" target="XMvrOeV04oSUWpngeJ3K-108" edge="1">
          <mxGeometry width="50" height="50" relative="1" as="geometry">
            <mxPoint x="1230" y="130" as="sourcePoint" />
            <mxPoint x="1280" y="80" as="targetPoint" />
          </mxGeometry>
        </mxCell>
        <mxCell id="KnP2Nq6tkSezV6llHABw-27" value="" style="endArrow=none;html=1;rounded=0;entryX=0.5;entryY=1;entryDx=0;entryDy=0;entryPerimeter=0;exitX=0.98;exitY=0.5;exitDx=0;exitDy=0;exitPerimeter=0;" parent="1" source="XMvrOeV04oSUWpngeJ3K-21" target="XMvrOeV04oSUWpngeJ3K-107" edge="1">
          <mxGeometry width="50" height="50" relative="1" as="geometry">
            <mxPoint x="1180" y="-30" as="sourcePoint" />
            <mxPoint x="1360" y="40" as="targetPoint" />
          </mxGeometry>
        </mxCell>
        <mxCell id="KnP2Nq6tkSezV6llHABw-28" value="" style="endArrow=none;html=1;rounded=0;exitX=1;exitY=0;exitDx=0;exitDy=0;exitPerimeter=0;entryX=0;entryY=1;entryDx=0;entryDy=0;entryPerimeter=0;" parent="1" source="XMvrOeV04oSUWpngeJ3K-22" target="KnP2Nq6tkSezV6llHABw-4" edge="1">
          <mxGeometry width="50" height="50" relative="1" as="geometry">
            <mxPoint x="1310" y="140" as="sourcePoint" />
            <mxPoint x="1360" y="90" as="targetPoint" />
          </mxGeometry>
        </mxCell>
        <mxCell id="KnP2Nq6tkSezV6llHABw-29" value="" style="endArrow=none;html=1;rounded=0;exitX=0.98;exitY=0.5;exitDx=0;exitDy=0;exitPerimeter=0;entryX=0;entryY=1;entryDx=0;entryDy=0;entryPerimeter=0;" parent="1" source="XMvrOeV04oSUWpngeJ3K-22" target="KnP2Nq6tkSezV6llHABw-2" edge="1">
          <mxGeometry width="50" height="50" relative="1" as="geometry">
            <mxPoint x="1310" y="160" as="sourcePoint" />
            <mxPoint x="1360" y="110" as="targetPoint" />
          </mxGeometry>
        </mxCell>
        <mxCell id="KnP2Nq6tkSezV6llHABw-30" value="" style="endArrow=none;html=1;rounded=0;exitX=0.98;exitY=0.5;exitDx=0;exitDy=0;exitPerimeter=0;entryX=0.5;entryY=1;entryDx=0;entryDy=0;entryPerimeter=0;" parent="1" source="XMvrOeV04oSUWpngeJ3K-22" target="KnP2Nq6tkSezV6llHABw-1" edge="1">
          <mxGeometry width="50" height="50" relative="1" as="geometry">
            <mxPoint x="1310" y="160" as="sourcePoint" />
            <mxPoint x="1360" y="110" as="targetPoint" />
          </mxGeometry>
        </mxCell>
        <mxCell id="KnP2Nq6tkSezV6llHABw-31" value="" style="endArrow=none;html=1;rounded=0;exitX=0.98;exitY=0.5;exitDx=0;exitDy=0;exitPerimeter=0;entryX=0;entryY=1;entryDx=0;entryDy=0;entryPerimeter=0;" parent="1" source="XMvrOeV04oSUWpngeJ3K-23" target="KnP2Nq6tkSezV6llHABw-7" edge="1">
          <mxGeometry width="50" height="50" relative="1" as="geometry">
            <mxPoint x="1370" y="220" as="sourcePoint" />
            <mxPoint x="1420" y="170" as="targetPoint" />
          </mxGeometry>
        </mxCell>
        <mxCell id="KnP2Nq6tkSezV6llHABw-32" value="" style="endArrow=none;html=1;rounded=0;exitX=0.98;exitY=0.5;exitDx=0;exitDy=0;exitPerimeter=0;entryX=0.5;entryY=1;entryDx=0;entryDy=0;entryPerimeter=0;" parent="1" source="XMvrOeV04oSUWpngeJ3K-23" target="KnP2Nq6tkSezV6llHABw-6" edge="1">
          <mxGeometry width="50" height="50" relative="1" as="geometry">
            <mxPoint x="1370" y="220" as="sourcePoint" />
            <mxPoint x="1420" y="170" as="targetPoint" />
          </mxGeometry>
        </mxCell>
        <mxCell id="KnP2Nq6tkSezV6llHABw-33" value="" style="endArrow=none;html=1;rounded=0;exitX=0.98;exitY=0.5;exitDx=0;exitDy=0;exitPerimeter=0;entryX=0;entryY=1;entryDx=0;entryDy=0;entryPerimeter=0;" parent="1" source="XMvrOeV04oSUWpngeJ3K-18" target="KnP2Nq6tkSezV6llHABw-12" edge="1">
          <mxGeometry width="50" height="50" relative="1" as="geometry">
            <mxPoint x="1350" y="380" as="sourcePoint" />
            <mxPoint x="1400" y="330" as="targetPoint" />
          </mxGeometry>
        </mxCell>
        <mxCell id="KnP2Nq6tkSezV6llHABw-34" value="" style="endArrow=none;html=1;rounded=0;exitX=0.98;exitY=0.5;exitDx=0;exitDy=0;exitPerimeter=0;entryX=0.5;entryY=1;entryDx=0;entryDy=0;entryPerimeter=0;" parent="1" source="XMvrOeV04oSUWpngeJ3K-18" target="KnP2Nq6tkSezV6llHABw-11" edge="1">
          <mxGeometry width="50" height="50" relative="1" as="geometry">
            <mxPoint x="1350" y="380" as="sourcePoint" />
            <mxPoint x="1400" y="330" as="targetPoint" />
          </mxGeometry>
        </mxCell>
        <mxCell id="KnP2Nq6tkSezV6llHABw-35" value="" style="endArrow=none;html=1;rounded=0;exitX=0.98;exitY=0.5;exitDx=0;exitDy=0;exitPerimeter=0;entryX=0;entryY=1;entryDx=0;entryDy=0;entryPerimeter=0;" parent="1" source="XMvrOeV04oSUWpngeJ3K-19" target="KnP2Nq6tkSezV6llHABw-17" edge="1">
          <mxGeometry width="50" height="50" relative="1" as="geometry">
            <mxPoint x="1394" y="558" as="sourcePoint" />
            <mxPoint x="1444" y="508" as="targetPoint" />
          </mxGeometry>
        </mxCell>
        <mxCell id="KnP2Nq6tkSezV6llHABw-36" value="" style="endArrow=none;html=1;rounded=0;exitX=0.98;exitY=0.5;exitDx=0;exitDy=0;exitPerimeter=0;entryX=0.5;entryY=1;entryDx=0;entryDy=0;entryPerimeter=0;" parent="1" source="XMvrOeV04oSUWpngeJ3K-19" target="KnP2Nq6tkSezV6llHABw-16" edge="1">
          <mxGeometry width="50" height="50" relative="1" as="geometry">
            <mxPoint x="1204" y="708" as="sourcePoint" />
            <mxPoint x="1444" y="728" as="targetPoint" />
          </mxGeometry>
        </mxCell>
        <mxCell id="KnP2Nq6tkSezV6llHABw-40" value="&lt;div&gt;1 Floor&amp;nbsp; - Router&lt;/div&gt;" style="text;html=1;align=center;verticalAlign=middle;whiteSpace=wrap;rounded=0;" parent="1" vertex="1">
          <mxGeometry x="417" y="170" width="60" height="30" as="geometry" />
        </mxCell>
        <mxCell id="KnP2Nq6tkSezV6llHABw-41" value="2 Floor&amp;nbsp; - Router" style="text;html=1;align=center;verticalAlign=middle;whiteSpace=wrap;rounded=0;" parent="1" vertex="1">
          <mxGeometry x="417" y="497" width="60" height="30" as="geometry" />
        </mxCell>
        <mxCell id="KnP2Nq6tkSezV6llHABw-42" value="&lt;div&gt;3 Floor&amp;nbsp; - Router&lt;/div&gt;" style="text;html=1;align=center;verticalAlign=middle;whiteSpace=wrap;rounded=0;" parent="1" vertex="1">
          <mxGeometry x="731" y="170" width="60" height="30" as="geometry" />
        </mxCell>
        <mxCell id="KnP2Nq6tkSezV6llHABw-43" value="&lt;div&gt;4 Floor&amp;nbsp; - Router&lt;/div&gt;" style="text;html=1;align=center;verticalAlign=middle;whiteSpace=wrap;rounded=0;" parent="1" vertex="1">
          <mxGeometry x="731" y="497" width="60" height="30" as="geometry" />
        </mxCell>
        <mxCell id="KnP2Nq6tkSezV6llHABw-44" value="&lt;div&gt;1 Floor&amp;nbsp; - L3SW&lt;br&gt;&lt;/div&gt;" style="text;html=1;align=center;verticalAlign=middle;whiteSpace=wrap;rounded=0;" parent="1" vertex="1">
          <mxGeometry x="214" y="130" width="60" height="30" as="geometry" />
        </mxCell>
        <mxCell id="KnP2Nq6tkSezV6llHABw-45" value="&lt;div&gt;2 Floor&amp;nbsp; - L3SW&lt;/div&gt;" style="text;html=1;align=center;verticalAlign=middle;whiteSpace=wrap;rounded=0;" parent="1" vertex="1">
          <mxGeometry x="214" y="544" width="60" height="30" as="geometry" />
        </mxCell>
        <mxCell id="KnP2Nq6tkSezV6llHABw-46" value="&lt;div&gt;3 Floor&amp;nbsp; - L3SW&lt;/div&gt;" style="text;html=1;align=center;verticalAlign=middle;whiteSpace=wrap;rounded=0;" parent="1" vertex="1">
          <mxGeometry x="930" y="117" width="60" height="30" as="geometry" />
        </mxCell>
        <mxCell id="KnP2Nq6tkSezV6llHABw-47" value="&lt;div&gt;4 Floor&amp;nbsp; - L3SW&lt;br&gt;&lt;/div&gt;" style="text;html=1;align=center;verticalAlign=middle;whiteSpace=wrap;rounded=0;" parent="1" vertex="1">
          <mxGeometry x="917" y="553" width="60" height="30" as="geometry" />
        </mxCell>
        <mxCell id="CVvKVx2m2oai3thRhIA--1" value="Management-sw" style="text;html=1;align=center;verticalAlign=middle;whiteSpace=wrap;rounded=0;" vertex="1" parent="1">
          <mxGeometry x="80" y="-60" width="60" height="30" as="geometry" />
        </mxCell>
        <mxCell id="CVvKVx2m2oai3thRhIA--2" value="&lt;div&gt;Research-sw&lt;/div&gt;" style="text;html=1;align=center;verticalAlign=middle;whiteSpace=wrap;rounded=0;" vertex="1" parent="1">
          <mxGeometry x="80" y="73" width="60" height="30" as="geometry" />
        </mxCell>
        <mxCell id="CVvKVx2m2oai3thRhIA--3" value="HR-sw" style="text;html=1;align=center;verticalAlign=middle;whiteSpace=wrap;rounded=0;" vertex="1" parent="1">
          <mxGeometry x="80" y="220" width="60" height="30" as="geometry" />
        </mxCell>
        <mxCell id="CVvKVx2m2oai3thRhIA--6" value="Logistics-sw" style="text;html=1;align=center;verticalAlign=middle;whiteSpace=wrap;rounded=0;" vertex="1" parent="1">
          <mxGeometry x="1109" y="-86" width="60" height="30" as="geometry" />
        </mxCell>
        <mxCell id="CVvKVx2m2oai3thRhIA--7" value="Customercare-sw" style="text;html=1;align=center;verticalAlign=middle;whiteSpace=wrap;rounded=0;" vertex="1" parent="1">
          <mxGeometry x="1109" y="78" width="60" height="30" as="geometry" />
        </mxCell>
        <mxCell id="CVvKVx2m2oai3thRhIA--8" value="GuestArea-sw" style="text;html=1;align=center;verticalAlign=middle;whiteSpace=wrap;rounded=0;" vertex="1" parent="1">
          <mxGeometry x="1109" y="200" width="60" height="30" as="geometry" />
        </mxCell>
        <mxCell id="CVvKVx2m2oai3thRhIA--9" value="Admin-sw" style="text;html=1;align=center;verticalAlign=middle;whiteSpace=wrap;rounded=0;" vertex="1" parent="1">
          <mxGeometry x="1109" y="421" width="60" height="30" as="geometry" />
        </mxCell>
        <mxCell id="CVvKVx2m2oai3thRhIA--10" value="ICT-sw" style="text;html=1;align=center;verticalAlign=middle;whiteSpace=wrap;rounded=0;" vertex="1" parent="1">
          <mxGeometry x="1109" y="593" width="60" height="30" as="geometry" />
        </mxCell>
        <mxCell id="CVvKVx2m2oai3thRhIA--11" value="Server-sw" style="text;html=1;align=center;verticalAlign=middle;whiteSpace=wrap;rounded=0;" vertex="1" parent="1">
          <mxGeometry x="1115" y="753" width="60" height="30" as="geometry" />
        </mxCell>
        <mxCell id="CVvKVx2m2oai3thRhIA--13" value="" style="shape=mxgraph.cisco.servers.file_server;sketch=0;html=1;pointerEvents=1;dashed=0;fillColor=#036897;strokeColor=#ffffff;strokeWidth=2;verticalLabelPosition=bottom;verticalAlign=top;align=center;outlineConnect=0;" vertex="1" parent="1">
          <mxGeometry x="1280" y="775" width="43" height="58" as="geometry" />
        </mxCell>
        <mxCell id="CVvKVx2m2oai3thRhIA--14" value="" style="shape=mxgraph.cisco.servers.file_server;sketch=0;html=1;pointerEvents=1;dashed=0;fillColor=#036897;strokeColor=#ffffff;strokeWidth=2;verticalLabelPosition=bottom;verticalAlign=top;align=center;outlineConnect=0;" vertex="1" parent="1">
          <mxGeometry x="1347.5" y="806" width="43" height="58" as="geometry" />
        </mxCell>
        <mxCell id="CVvKVx2m2oai3thRhIA--15" value="" style="shape=mxgraph.cisco.servers.file_server;sketch=0;html=1;pointerEvents=1;dashed=0;fillColor=#036897;strokeColor=#ffffff;strokeWidth=2;verticalLabelPosition=bottom;verticalAlign=top;align=center;outlineConnect=0;" vertex="1" parent="1">
          <mxGeometry x="1410" y="864" width="43" height="58" as="geometry" />
        </mxCell>
        <mxCell id="CVvKVx2m2oai3thRhIA--16" value="" style="endArrow=none;html=1;rounded=0;exitX=0.98;exitY=0.5;exitDx=0;exitDy=0;exitPerimeter=0;entryX=0;entryY=1;entryDx=0;entryDy=0;entryPerimeter=0;" edge="1" parent="1" source="XMvrOeV04oSUWpngeJ3K-20" target="CVvKVx2m2oai3thRhIA--13">
          <mxGeometry width="50" height="50" relative="1" as="geometry">
            <mxPoint x="1230" y="870" as="sourcePoint" />
            <mxPoint x="1280" y="820" as="targetPoint" />
          </mxGeometry>
        </mxCell>
        <mxCell id="CVvKVx2m2oai3thRhIA--17" value="" style="endArrow=none;html=1;rounded=0;entryX=0;entryY=1;entryDx=0;entryDy=0;entryPerimeter=0;exitX=0.98;exitY=0.5;exitDx=0;exitDy=0;exitPerimeter=0;" edge="1" parent="1" source="XMvrOeV04oSUWpngeJ3K-20" target="CVvKVx2m2oai3thRhIA--14">
          <mxGeometry width="50" height="50" relative="1" as="geometry">
            <mxPoint x="1230" y="870" as="sourcePoint" />
            <mxPoint x="1280" y="820" as="targetPoint" />
          </mxGeometry>
        </mxCell>
        <mxCell id="CVvKVx2m2oai3thRhIA--18" value="" style="endArrow=none;html=1;rounded=0;entryX=0;entryY=1;entryDx=0;entryDy=0;entryPerimeter=0;exitX=0.98;exitY=0.5;exitDx=0;exitDy=0;exitPerimeter=0;" edge="1" parent="1" source="XMvrOeV04oSUWpngeJ3K-20" target="CVvKVx2m2oai3thRhIA--15">
          <mxGeometry width="50" height="50" relative="1" as="geometry">
            <mxPoint x="1230" y="870" as="sourcePoint" />
            <mxPoint x="1280" y="820" as="targetPoint" />
          </mxGeometry>
        </mxCell>
        <mxCell id="CVvKVx2m2oai3thRhIA--19" value="DHCP" style="text;html=1;align=center;verticalAlign=middle;whiteSpace=wrap;rounded=0;" vertex="1" parent="1">
          <mxGeometry x="1311" y="760" width="60" height="30" as="geometry" />
        </mxCell>
        <mxCell id="CVvKVx2m2oai3thRhIA--20" value="HTTP" style="text;html=1;align=center;verticalAlign=middle;whiteSpace=wrap;rounded=0;" vertex="1" parent="1">
          <mxGeometry x="1387.5" y="803" width="60" height="30" as="geometry" />
        </mxCell>
        <mxCell id="CVvKVx2m2oai3thRhIA--21" value="Email" style="text;html=1;align=center;verticalAlign=middle;whiteSpace=wrap;rounded=0;" vertex="1" parent="1">
          <mxGeometry x="1442" y="864" width="60" height="30" as="geometry" />
        </mxCell>
        <mxCell id="CVvKVx2m2oai3thRhIA--22" value="Mgt-AP" style="text;html=1;align=center;verticalAlign=middle;whiteSpace=wrap;rounded=0;" vertex="1" parent="1">
          <mxGeometry y="-160" width="60" height="30" as="geometry" />
        </mxCell>
        <mxCell id="CVvKVx2m2oai3thRhIA--23" value="Mgt-Phone" style="text;html=1;align=center;verticalAlign=middle;whiteSpace=wrap;rounded=0;" vertex="1" parent="1">
          <mxGeometry x="-177" y="-230" width="60" height="30" as="geometry" />
        </mxCell>
        <mxCell id="CVvKVx2m2oai3thRhIA--24" value="Mgt-Printer" style="text;html=1;align=center;verticalAlign=middle;whiteSpace=wrap;rounded=0;" vertex="1" parent="1">
          <mxGeometry x="-230" y="-129" width="60" height="30" as="geometry" />
        </mxCell>
        <mxCell id="CVvKVx2m2oai3thRhIA--25" value="Mgt-PC" style="text;html=1;align=center;verticalAlign=middle;whiteSpace=wrap;rounded=0;" vertex="1" parent="1">
          <mxGeometry x="-330.5" y="-116" width="60" height="30" as="geometry" />
        </mxCell>
        <mxCell id="CVvKVx2m2oai3thRhIA--26" value="Res-Phone" style="text;html=1;align=center;verticalAlign=middle;whiteSpace=wrap;rounded=0;" vertex="1" parent="1">
          <mxGeometry x="-156" y="28" width="60" height="30" as="geometry" />
        </mxCell>
        <mxCell id="CVvKVx2m2oai3thRhIA--27" value="Res-Printer" style="text;html=1;align=center;verticalAlign=middle;whiteSpace=wrap;rounded=0;" vertex="1" parent="1">
          <mxGeometry x="-258.5" y="53" width="60" height="30" as="geometry" />
        </mxCell>
        <mxCell id="CVvKVx2m2oai3thRhIA--28" value="Res-PC" style="text;html=1;align=center;verticalAlign=middle;whiteSpace=wrap;rounded=0;" vertex="1" parent="1">
          <mxGeometry x="-350" y="53" width="60" height="30" as="geometry" />
        </mxCell>
        <mxCell id="CVvKVx2m2oai3thRhIA--29" value="HR -Phone" style="text;html=1;align=center;verticalAlign=middle;whiteSpace=wrap;rounded=0;" vertex="1" parent="1">
          <mxGeometry x="-156" y="180" width="60" height="30" as="geometry" />
        </mxCell>
        <mxCell id="CVvKVx2m2oai3thRhIA--30" value="HR- Printer" style="text;html=1;align=center;verticalAlign=middle;whiteSpace=wrap;rounded=0;" vertex="1" parent="1">
          <mxGeometry x="-258.5" y="215" width="60" height="30" as="geometry" />
        </mxCell>
        <mxCell id="CVvKVx2m2oai3thRhIA--31" value="HR-PC" style="text;html=1;align=center;verticalAlign=middle;whiteSpace=wrap;rounded=0;" vertex="1" parent="1">
          <mxGeometry x="-360" y="205" width="60" height="45" as="geometry" />
        </mxCell>
        <mxCell id="CVvKVx2m2oai3thRhIA--33" value="Res-AP" style="text;html=1;align=center;verticalAlign=middle;whiteSpace=wrap;rounded=0;" vertex="1" parent="1">
          <mxGeometry x="-50" y="53" width="60" height="30" as="geometry" />
        </mxCell>
        <mxCell id="CVvKVx2m2oai3thRhIA--34" value="HR-AP" style="text;html=1;align=center;verticalAlign=middle;whiteSpace=wrap;rounded=0;" vertex="1" parent="1">
          <mxGeometry x="-50" y="180" width="60" height="30" as="geometry" />
        </mxCell>
        <mxCell id="CVvKVx2m2oai3thRhIA--46" value="Logi-AP" style="text;html=1;align=center;verticalAlign=middle;whiteSpace=wrap;rounded=0;" vertex="1" parent="1">
          <mxGeometry x="1181" y="-180" width="60" height="30" as="geometry" />
        </mxCell>
        <mxCell id="CVvKVx2m2oai3thRhIA--47" value="Logi-Printer" style="text;html=1;align=center;verticalAlign=middle;whiteSpace=wrap;rounded=0;" vertex="1" parent="1">
          <mxGeometry x="1323" y="-160" width="60" height="30" as="geometry" />
        </mxCell>
        <mxCell id="CVvKVx2m2oai3thRhIA--48" value="Logi-Phone" style="text;html=1;align=center;verticalAlign=middle;whiteSpace=wrap;rounded=0;" vertex="1" parent="1">
          <mxGeometry x="1323" y="-280" width="60" height="30" as="geometry" />
        </mxCell>
        <mxCell id="CVvKVx2m2oai3thRhIA--49" value="Logi-PC" style="text;html=1;align=center;verticalAlign=middle;whiteSpace=wrap;rounded=0;" vertex="1" parent="1">
          <mxGeometry x="1466" y="-176" width="60" height="30" as="geometry" />
        </mxCell>
        <mxCell id="CVvKVx2m2oai3thRhIA--50" value="Cust-AP" style="text;html=1;align=center;verticalAlign=middle;whiteSpace=wrap;rounded=0;" vertex="1" parent="1">
          <mxGeometry x="1215" y="20" width="60" height="30" as="geometry" />
        </mxCell>
        <mxCell id="CVvKVx2m2oai3thRhIA--51" value="Cust-Printer" style="text;html=1;align=center;verticalAlign=middle;whiteSpace=wrap;rounded=0;" vertex="1" parent="1">
          <mxGeometry x="1371" y="43" width="60" height="30" as="geometry" />
        </mxCell>
        <mxCell id="CVvKVx2m2oai3thRhIA--52" value="Cust-Phone" style="text;html=1;align=center;verticalAlign=middle;whiteSpace=wrap;rounded=0;" vertex="1" parent="1">
          <mxGeometry x="1314" y="-30" width="60" height="30" as="geometry" />
        </mxCell>
        <mxCell id="CVvKVx2m2oai3thRhIA--53" value="Cust-PC" style="text;html=1;align=center;verticalAlign=middle;whiteSpace=wrap;rounded=0;" vertex="1" parent="1">
          <mxGeometry x="1489.5" y="50" width="60" height="30" as="geometry" />
        </mxCell>
        <mxCell id="CVvKVx2m2oai3thRhIA--54" value="Guest-AP" style="text;html=1;align=center;verticalAlign=middle;whiteSpace=wrap;rounded=0;" vertex="1" parent="1">
          <mxGeometry x="1210" y="167" width="60" height="30" as="geometry" />
        </mxCell>
        <mxCell id="CVvKVx2m2oai3thRhIA--56" value="Guest-Phone" style="text;html=1;align=center;verticalAlign=middle;whiteSpace=wrap;rounded=0;" vertex="1" parent="1">
          <mxGeometry x="1323" y="170" width="60" height="30" as="geometry" />
        </mxCell>
        <mxCell id="CVvKVx2m2oai3thRhIA--57" value="Guest-Printer" style="text;html=1;align=center;verticalAlign=middle;whiteSpace=wrap;rounded=0;" vertex="1" parent="1">
          <mxGeometry x="1390.5" y="228" width="60" height="30" as="geometry" />
        </mxCell>
        <mxCell id="CVvKVx2m2oai3thRhIA--60" value="Admin-AP" style="text;html=1;align=center;verticalAlign=middle;whiteSpace=wrap;rounded=0;" vertex="1" parent="1">
          <mxGeometry x="1222" y="374" width="60" height="30" as="geometry" />
        </mxCell>
        <mxCell id="CVvKVx2m2oai3thRhIA--61" value="Admin-Phone" style="text;html=1;align=center;verticalAlign=middle;whiteSpace=wrap;rounded=0;" vertex="1" parent="1">
          <mxGeometry x="1331.5" y="396" width="60" height="30" as="geometry" />
        </mxCell>
        <mxCell id="CVvKVx2m2oai3thRhIA--62" value="Admin-Printer" style="text;html=1;align=center;verticalAlign=middle;whiteSpace=wrap;rounded=0;" vertex="1" parent="1">
          <mxGeometry x="1418.5" y="445.5" width="60" height="30" as="geometry" />
        </mxCell>
        <mxCell id="CVvKVx2m2oai3thRhIA--63" value="Admin-PC" style="text;html=1;align=center;verticalAlign=middle;whiteSpace=wrap;rounded=0;" vertex="1" parent="1">
          <mxGeometry x="1514.5" y="457" width="60" height="30" as="geometry" />
        </mxCell>
        <mxCell id="CVvKVx2m2oai3thRhIA--64" value="ICT-AP" style="text;html=1;align=center;verticalAlign=middle;whiteSpace=wrap;rounded=0;" vertex="1" parent="1">
          <mxGeometry x="1222" y="553" width="60" height="30" as="geometry" />
        </mxCell>
        <mxCell id="CVvKVx2m2oai3thRhIA--65" value="ICT -Phone" style="text;html=1;align=center;verticalAlign=middle;whiteSpace=wrap;rounded=0;" vertex="1" parent="1">
          <mxGeometry x="1317" y="544" width="60" height="30" as="geometry" />
        </mxCell>
        <mxCell id="CVvKVx2m2oai3thRhIA--66" value="ICT -Printer" style="text;html=1;align=center;verticalAlign=middle;whiteSpace=wrap;rounded=0;" vertex="1" parent="1">
          <mxGeometry x="1466" y="601" width="60" height="30" as="geometry" />
        </mxCell>
        <mxCell id="CVvKVx2m2oai3thRhIA--67" value="ICT-PC" style="text;html=1;align=center;verticalAlign=middle;whiteSpace=wrap;rounded=0;" vertex="1" parent="1">
          <mxGeometry x="1401.5" y="675" width="60" height="30" as="geometry" />
        </mxCell>
        <mxCell id="CVvKVx2m2oai3thRhIA--68" value="First Floor" style="swimlane;whiteSpace=wrap;html=1;fillColor=#f8cecc;strokeColor=#b85450;" vertex="1" parent="1">
          <mxGeometry x="-540" y="-320" width="900" height="660" as="geometry" />
        </mxCell>
        <mxCell id="CVvKVx2m2oai3thRhIA--69" value="Second Floor" style="swimlane;whiteSpace=wrap;html=1;fillColor=#f8cecc;strokeColor=#b85450;" vertex="1" parent="1">
          <mxGeometry x="-540" y="348" width="900" height="612" as="geometry" />
        </mxCell>
        <mxCell id="XMvrOeV04oSUWpngeJ3K-84" value="" style="shape=mxgraph.cisco.modems_and_phones.cell_phone;sketch=0;html=1;pointerEvents=1;dashed=0;fillColor=#036897;strokeColor=#ffffff;strokeWidth=2;verticalLabelPosition=bottom;verticalAlign=top;align=center;outlineConnect=0;" parent="CVvKVx2m2oai3thRhIA--69" vertex="1">
          <mxGeometry x="384" y="50" width="34" height="58" as="geometry" />
        </mxCell>
        <mxCell id="XMvrOeV04oSUWpngeJ3K-15" value="" style="shape=mxgraph.cisco.switches.workgroup_switch;sketch=0;html=1;pointerEvents=1;dashed=0;fillColor=#036897;strokeColor=#ffffff;strokeWidth=2;verticalLabelPosition=bottom;verticalAlign=top;align=center;outlineConnect=0;" parent="CVvKVx2m2oai3thRhIA--69" vertex="1">
          <mxGeometry x="590" y="127" width="101" height="50" as="geometry" />
        </mxCell>
        <mxCell id="XMvrOeV04oSUWpngeJ3K-16" value="" style="shape=mxgraph.cisco.switches.workgroup_switch;sketch=0;html=1;pointerEvents=1;dashed=0;fillColor=#036897;strokeColor=#ffffff;strokeWidth=2;verticalLabelPosition=bottom;verticalAlign=top;align=center;outlineConnect=0;" parent="CVvKVx2m2oai3thRhIA--69" vertex="1">
          <mxGeometry x="590" y="252" width="101" height="50" as="geometry" />
        </mxCell>
        <mxCell id="XMvrOeV04oSUWpngeJ3K-17" value="" style="shape=mxgraph.cisco.switches.workgroup_switch;sketch=0;html=1;pointerEvents=1;dashed=0;fillColor=#036897;strokeColor=#ffffff;strokeWidth=2;verticalLabelPosition=bottom;verticalAlign=top;align=center;outlineConnect=0;" parent="CVvKVx2m2oai3thRhIA--69" vertex="1">
          <mxGeometry x="590" y="362" width="101" height="50" as="geometry" />
        </mxCell>
        <mxCell id="XMvrOeV04oSUWpngeJ3K-82" value="" style="shape=mxgraph.cisco.computers_and_peripherals.macintosh;sketch=0;html=1;pointerEvents=1;dashed=0;fillColor=#036897;strokeColor=#ffffff;strokeWidth=2;verticalLabelPosition=bottom;verticalAlign=top;align=center;outlineConnect=0;" parent="CVvKVx2m2oai3thRhIA--69" vertex="1">
          <mxGeometry x="180" y="120" width="99" height="64" as="geometry" />
        </mxCell>
        <mxCell id="XMvrOeV04oSUWpngeJ3K-83" value="" style="shape=mxgraph.cisco.computers_and_peripherals.printer;sketch=0;html=1;pointerEvents=1;dashed=0;fillColor=#036897;strokeColor=#ffffff;strokeWidth=2;verticalLabelPosition=bottom;verticalAlign=top;align=center;outlineConnect=0;" parent="CVvKVx2m2oai3thRhIA--69" vertex="1">
          <mxGeometry x="279" y="120" width="91" height="34" as="geometry" />
        </mxCell>
        <mxCell id="XMvrOeV04oSUWpngeJ3K-85" value="" style="shape=mxgraph.cisco.wireless.wireless_transport;sketch=0;html=1;pointerEvents=1;dashed=0;fillColor=#036897;strokeColor=#ffffff;strokeWidth=2;verticalLabelPosition=bottom;verticalAlign=top;align=center;outlineConnect=0;" parent="CVvKVx2m2oai3thRhIA--69" vertex="1">
          <mxGeometry x="490" y="107" width="60" height="37" as="geometry" />
        </mxCell>
        <mxCell id="XMvrOeV04oSUWpngeJ3K-86" value="" style="shape=mxgraph.cisco.computers_and_peripherals.macintosh;sketch=0;html=1;pointerEvents=1;dashed=0;fillColor=#036897;strokeColor=#ffffff;strokeWidth=2;verticalLabelPosition=bottom;verticalAlign=top;align=center;outlineConnect=0;" parent="CVvKVx2m2oai3thRhIA--69" vertex="1">
          <mxGeometry x="180" y="308" width="99" height="64" as="geometry" />
        </mxCell>
        <mxCell id="XMvrOeV04oSUWpngeJ3K-87" value="" style="shape=mxgraph.cisco.computers_and_peripherals.printer;sketch=0;html=1;pointerEvents=1;dashed=0;fillColor=#036897;strokeColor=#ffffff;strokeWidth=2;verticalLabelPosition=bottom;verticalAlign=top;align=center;outlineConnect=0;" parent="CVvKVx2m2oai3thRhIA--69" vertex="1">
          <mxGeometry x="279" y="261" width="91" height="34" as="geometry" />
        </mxCell>
        <mxCell id="XMvrOeV04oSUWpngeJ3K-88" value="" style="shape=mxgraph.cisco.modems_and_phones.cell_phone;sketch=0;html=1;pointerEvents=1;dashed=0;fillColor=#036897;strokeColor=#ffffff;strokeWidth=2;verticalLabelPosition=bottom;verticalAlign=top;align=center;outlineConnect=0;" parent="CVvKVx2m2oai3thRhIA--69" vertex="1">
          <mxGeometry x="367" y="184" width="34" height="58" as="geometry" />
        </mxCell>
        <mxCell id="XMvrOeV04oSUWpngeJ3K-89" value="" style="shape=mxgraph.cisco.wireless.wireless_transport;sketch=0;html=1;pointerEvents=1;dashed=0;fillColor=#036897;strokeColor=#ffffff;strokeWidth=2;verticalLabelPosition=bottom;verticalAlign=top;align=center;outlineConnect=0;" parent="CVvKVx2m2oai3thRhIA--69" vertex="1">
          <mxGeometry x="490" y="227" width="60" height="43" as="geometry" />
        </mxCell>
        <mxCell id="XMvrOeV04oSUWpngeJ3K-90" value="" style="shape=mxgraph.cisco.computers_and_peripherals.macintosh;sketch=0;html=1;pointerEvents=1;dashed=0;fillColor=#036897;strokeColor=#ffffff;strokeWidth=2;verticalLabelPosition=bottom;verticalAlign=top;align=center;outlineConnect=0;" parent="CVvKVx2m2oai3thRhIA--69" vertex="1">
          <mxGeometry x="242.5" y="487" width="99" height="64" as="geometry" />
        </mxCell>
        <mxCell id="XMvrOeV04oSUWpngeJ3K-91" value="" style="shape=mxgraph.cisco.computers_and_peripherals.printer;sketch=0;html=1;pointerEvents=1;dashed=0;fillColor=#036897;strokeColor=#ffffff;strokeWidth=2;verticalLabelPosition=bottom;verticalAlign=top;align=center;outlineConnect=0;" parent="CVvKVx2m2oai3thRhIA--69" vertex="1">
          <mxGeometry x="341.5" y="467" width="91" height="34" as="geometry" />
        </mxCell>
        <mxCell id="XMvrOeV04oSUWpngeJ3K-92" value="" style="shape=mxgraph.cisco.wireless.wireless_transport;sketch=0;html=1;pointerEvents=1;dashed=0;fillColor=#036897;strokeColor=#ffffff;strokeWidth=2;verticalLabelPosition=bottom;verticalAlign=top;align=center;outlineConnect=0;" parent="CVvKVx2m2oai3thRhIA--69" vertex="1">
          <mxGeometry x="490.5" y="347" width="59.5" height="37" as="geometry" />
        </mxCell>
        <mxCell id="XMvrOeV04oSUWpngeJ3K-93" value="" style="shape=mxgraph.cisco.modems_and_phones.cell_phone;sketch=0;html=1;pointerEvents=1;dashed=0;fillColor=#036897;strokeColor=#ffffff;strokeWidth=2;verticalLabelPosition=bottom;verticalAlign=top;align=center;outlineConnect=0;" parent="CVvKVx2m2oai3thRhIA--69" vertex="1">
          <mxGeometry x="376" y="372" width="34" height="58" as="geometry" />
        </mxCell>
        <mxCell id="XMvrOeV04oSUWpngeJ3K-97" value="" style="endArrow=none;html=1;rounded=0;exitX=0.87;exitY=1;exitDx=0;exitDy=0;exitPerimeter=0;" parent="CVvKVx2m2oai3thRhIA--69" source="XMvrOeV04oSUWpngeJ3K-82" target="XMvrOeV04oSUWpngeJ3K-15" edge="1">
          <mxGeometry width="50" height="50" relative="1" as="geometry">
            <mxPoint x="280" y="207" as="sourcePoint" />
            <mxPoint x="330" y="157" as="targetPoint" />
          </mxGeometry>
        </mxCell>
        <mxCell id="XMvrOeV04oSUWpngeJ3K-98" value="" style="endArrow=none;html=1;rounded=0;entryX=0;entryY=0.5;entryDx=0;entryDy=0;entryPerimeter=0;exitX=0.5;exitY=1;exitDx=0;exitDy=0;exitPerimeter=0;" parent="CVvKVx2m2oai3thRhIA--69" source="XMvrOeV04oSUWpngeJ3K-83" target="XMvrOeV04oSUWpngeJ3K-15" edge="1">
          <mxGeometry width="50" height="50" relative="1" as="geometry">
            <mxPoint x="280" y="207" as="sourcePoint" />
            <mxPoint x="330" y="157" as="targetPoint" />
          </mxGeometry>
        </mxCell>
        <mxCell id="XMvrOeV04oSUWpngeJ3K-99" value="" style="endArrow=none;html=1;rounded=0;entryX=0;entryY=0.5;entryDx=0;entryDy=0;entryPerimeter=0;exitX=0.965;exitY=0.95;exitDx=0;exitDy=0;exitPerimeter=0;" parent="CVvKVx2m2oai3thRhIA--69" source="XMvrOeV04oSUWpngeJ3K-85" target="XMvrOeV04oSUWpngeJ3K-15" edge="1">
          <mxGeometry width="50" height="50" relative="1" as="geometry">
            <mxPoint x="280" y="207" as="sourcePoint" />
            <mxPoint x="330" y="157" as="targetPoint" />
          </mxGeometry>
        </mxCell>
        <mxCell id="XMvrOeV04oSUWpngeJ3K-101" value="" style="endArrow=none;html=1;rounded=0;entryX=0;entryY=0.5;entryDx=0;entryDy=0;entryPerimeter=0;exitX=0.87;exitY=1;exitDx=0;exitDy=0;exitPerimeter=0;" parent="CVvKVx2m2oai3thRhIA--69" source="XMvrOeV04oSUWpngeJ3K-86" target="XMvrOeV04oSUWpngeJ3K-16" edge="1">
          <mxGeometry width="50" height="50" relative="1" as="geometry">
            <mxPoint x="280" y="577" as="sourcePoint" />
            <mxPoint x="330" y="527" as="targetPoint" />
          </mxGeometry>
        </mxCell>
        <mxCell id="XMvrOeV04oSUWpngeJ3K-102" value="" style="endArrow=none;html=1;rounded=0;entryX=0;entryY=0.5;entryDx=0;entryDy=0;entryPerimeter=0;exitX=0.5;exitY=1;exitDx=0;exitDy=0;exitPerimeter=0;" parent="CVvKVx2m2oai3thRhIA--69" source="XMvrOeV04oSUWpngeJ3K-87" target="XMvrOeV04oSUWpngeJ3K-16" edge="1">
          <mxGeometry width="50" height="50" relative="1" as="geometry">
            <mxPoint x="280" y="577" as="sourcePoint" />
            <mxPoint x="330" y="527" as="targetPoint" />
          </mxGeometry>
        </mxCell>
        <mxCell id="XMvrOeV04oSUWpngeJ3K-103" value="" style="endArrow=none;html=1;rounded=0;entryX=0;entryY=0.5;entryDx=0;entryDy=0;entryPerimeter=0;exitX=0.965;exitY=0.95;exitDx=0;exitDy=0;exitPerimeter=0;" parent="CVvKVx2m2oai3thRhIA--69" source="XMvrOeV04oSUWpngeJ3K-89" target="XMvrOeV04oSUWpngeJ3K-16" edge="1">
          <mxGeometry width="50" height="50" relative="1" as="geometry">
            <mxPoint x="280" y="577" as="sourcePoint" />
            <mxPoint x="330" y="527" as="targetPoint" />
          </mxGeometry>
        </mxCell>
        <mxCell id="XMvrOeV04oSUWpngeJ3K-104" value="" style="endArrow=none;html=1;rounded=0;entryX=0;entryY=0.5;entryDx=0;entryDy=0;entryPerimeter=0;exitX=0.87;exitY=1;exitDx=0;exitDy=0;exitPerimeter=0;" parent="CVvKVx2m2oai3thRhIA--69" source="XMvrOeV04oSUWpngeJ3K-90" target="XMvrOeV04oSUWpngeJ3K-17" edge="1">
          <mxGeometry width="50" height="50" relative="1" as="geometry">
            <mxPoint x="280" y="577" as="sourcePoint" />
            <mxPoint x="330" y="527" as="targetPoint" />
          </mxGeometry>
        </mxCell>
        <mxCell id="XMvrOeV04oSUWpngeJ3K-105" value="" style="endArrow=none;html=1;rounded=0;entryX=0;entryY=0.5;entryDx=0;entryDy=0;entryPerimeter=0;exitX=0.5;exitY=1;exitDx=0;exitDy=0;exitPerimeter=0;" parent="CVvKVx2m2oai3thRhIA--69" source="XMvrOeV04oSUWpngeJ3K-91" target="XMvrOeV04oSUWpngeJ3K-17" edge="1">
          <mxGeometry width="50" height="50" relative="1" as="geometry">
            <mxPoint x="280" y="577" as="sourcePoint" />
            <mxPoint x="330" y="527" as="targetPoint" />
          </mxGeometry>
        </mxCell>
        <mxCell id="XMvrOeV04oSUWpngeJ3K-106" value="" style="endArrow=none;html=1;rounded=0;entryX=0;entryY=0.5;entryDx=0;entryDy=0;entryPerimeter=0;exitX=0.965;exitY=0.95;exitDx=0;exitDy=0;exitPerimeter=0;" parent="CVvKVx2m2oai3thRhIA--69" source="XMvrOeV04oSUWpngeJ3K-92" target="XMvrOeV04oSUWpngeJ3K-17" edge="1">
          <mxGeometry width="50" height="50" relative="1" as="geometry">
            <mxPoint x="280" y="577" as="sourcePoint" />
            <mxPoint x="330" y="527" as="targetPoint" />
          </mxGeometry>
        </mxCell>
        <mxCell id="CVvKVx2m2oai3thRhIA--4" value="Marketing-sw" style="text;html=1;align=center;verticalAlign=middle;whiteSpace=wrap;rounded=0;" vertex="1" parent="CVvKVx2m2oai3thRhIA--69">
          <mxGeometry x="620" y="97" width="60" height="30" as="geometry" />
        </mxCell>
        <mxCell id="CVvKVx2m2oai3thRhIA--5" value="Finance-sw" style="text;html=1;align=center;verticalAlign=middle;whiteSpace=wrap;rounded=0;" vertex="1" parent="CVvKVx2m2oai3thRhIA--69">
          <mxGeometry x="620" y="332" width="60" height="30" as="geometry" />
        </mxCell>
        <mxCell id="CVvKVx2m2oai3thRhIA--12" value="&lt;div&gt;Accounting-sw&lt;/div&gt;" style="text;html=1;align=center;verticalAlign=middle;whiteSpace=wrap;rounded=0;" vertex="1" parent="CVvKVx2m2oai3thRhIA--69">
          <mxGeometry x="620" y="222" width="60" height="30" as="geometry" />
        </mxCell>
        <mxCell id="CVvKVx2m2oai3thRhIA--35" value="Mkt-AP" style="text;html=1;align=center;verticalAlign=middle;whiteSpace=wrap;rounded=0;" vertex="1" parent="CVvKVx2m2oai3thRhIA--69">
          <mxGeometry x="490" y="78" width="60" height="30" as="geometry" />
        </mxCell>
        <mxCell id="CVvKVx2m2oai3thRhIA--36" value="Mkt -Printer" style="text;html=1;align=center;verticalAlign=middle;whiteSpace=wrap;rounded=0;" vertex="1" parent="CVvKVx2m2oai3thRhIA--69">
          <mxGeometry x="281.5" y="90" width="60" height="30" as="geometry" />
        </mxCell>
        <mxCell id="CVvKVx2m2oai3thRhIA--37" value="Mkt-PC" style="text;html=1;align=center;verticalAlign=middle;whiteSpace=wrap;rounded=0;" vertex="1" parent="CVvKVx2m2oai3thRhIA--69">
          <mxGeometry x="199" y="78" width="60" height="45" as="geometry" />
        </mxCell>
        <mxCell id="CVvKVx2m2oai3thRhIA--38" value="Acct-AP" style="text;html=1;align=center;verticalAlign=middle;whiteSpace=wrap;rounded=0;" vertex="1" parent="CVvKVx2m2oai3thRhIA--69">
          <mxGeometry x="490" y="197" width="60" height="30" as="geometry" />
        </mxCell>
        <mxCell id="CVvKVx2m2oai3thRhIA--39" value="Acct -Phone" style="text;html=1;align=center;verticalAlign=middle;whiteSpace=wrap;rounded=0;" vertex="1" parent="CVvKVx2m2oai3thRhIA--69">
          <mxGeometry x="384" y="207" width="60" height="30" as="geometry" />
        </mxCell>
        <mxCell id="CVvKVx2m2oai3thRhIA--40" value="Acct -Printer" style="text;html=1;align=center;verticalAlign=middle;whiteSpace=wrap;rounded=0;" vertex="1" parent="CVvKVx2m2oai3thRhIA--69">
          <mxGeometry x="281.5" y="231" width="60" height="30" as="geometry" />
        </mxCell>
        <mxCell id="CVvKVx2m2oai3thRhIA--41" value="Acct-PC" style="text;html=1;align=center;verticalAlign=middle;whiteSpace=wrap;rounded=0;" vertex="1" parent="CVvKVx2m2oai3thRhIA--69">
          <mxGeometry x="199" y="267" width="60" height="45" as="geometry" />
        </mxCell>
        <mxCell id="CVvKVx2m2oai3thRhIA--42" value="Fin-AP" style="text;html=1;align=center;verticalAlign=middle;whiteSpace=wrap;rounded=0;" vertex="1" parent="CVvKVx2m2oai3thRhIA--69">
          <mxGeometry x="490" y="318" width="60" height="30" as="geometry" />
        </mxCell>
        <mxCell id="CVvKVx2m2oai3thRhIA--43" value="Fin -Phone" style="text;html=1;align=center;verticalAlign=middle;whiteSpace=wrap;rounded=0;" vertex="1" parent="CVvKVx2m2oai3thRhIA--69">
          <mxGeometry x="401" y="372" width="60" height="30" as="geometry" />
        </mxCell>
        <mxCell id="CVvKVx2m2oai3thRhIA--44" value="Fin -Printer" style="text;html=1;align=center;verticalAlign=middle;whiteSpace=wrap;rounded=0;" vertex="1" parent="CVvKVx2m2oai3thRhIA--69">
          <mxGeometry x="324" y="430" width="60" height="30" as="geometry" />
        </mxCell>
        <mxCell id="CVvKVx2m2oai3thRhIA--45" value="Fin-PC" style="text;html=1;align=center;verticalAlign=middle;whiteSpace=wrap;rounded=0;" vertex="1" parent="CVvKVx2m2oai3thRhIA--69">
          <mxGeometry x="250" y="448" width="60" height="45" as="geometry" />
        </mxCell>
        <mxCell id="CVvKVx2m2oai3thRhIA--32" value="Mkt -Phone" style="text;html=1;align=center;verticalAlign=middle;whiteSpace=wrap;rounded=0;" vertex="1" parent="CVvKVx2m2oai3thRhIA--69">
          <mxGeometry x="403" y="72" width="60" height="30" as="geometry" />
        </mxCell>
        <mxCell id="CVvKVx2m2oai3thRhIA--70" value="Third Floor" style="swimlane;whiteSpace=wrap;html=1;fillColor=#f8cecc;strokeColor=#b85450;" vertex="1" parent="1">
          <mxGeometry x="880" y="-320" width="810" height="668" as="geometry" />
        </mxCell>
        <mxCell id="KnP2Nq6tkSezV6llHABw-6" value="" style="shape=mxgraph.cisco.computers_and_peripherals.macintosh;sketch=0;html=1;pointerEvents=1;dashed=0;fillColor=#036897;strokeColor=#ffffff;strokeWidth=2;verticalLabelPosition=bottom;verticalAlign=top;align=center;outlineConnect=0;" parent="CVvKVx2m2oai3thRhIA--70" vertex="1">
          <mxGeometry x="600" y="574" width="99" height="64" as="geometry" />
        </mxCell>
        <mxCell id="CVvKVx2m2oai3thRhIA--59" value="Guest-PC" style="text;html=1;align=center;verticalAlign=middle;whiteSpace=wrap;rounded=0;" vertex="1" parent="CVvKVx2m2oai3thRhIA--70">
          <mxGeometry x="620" y="540" width="60" height="30" as="geometry" />
        </mxCell>
        <mxCell id="CVvKVx2m2oai3thRhIA--71" value="Forth Floor" style="swimlane;whiteSpace=wrap;html=1;fillColor=#f8cecc;strokeColor=#b85450;" vertex="1" parent="1">
          <mxGeometry x="880" y="350" width="810" height="600" as="geometry" />
        </mxCell>
      </root>
    </mxGraphModel>
  </diagram>
</mxfile>
